<svg fill="none" xmlns="http://www.w3.org/2000/svg" viewBox="0 0 540 250"><path d="m222.524 71.608-17.982 28.383-56.259-35.643-22.941 22.755c4.821 2.108 8.836 4.178 12.046 6.212 18.078 11.453 29.021 26.318 32.831 44.595 3.546 16.452-.033 33.125-10.737 50.02-11.346 17.908-26.402 28.967-45.169 33.177-18.767 4.21-37.865.16-57.294-12.149-14.698-9.313-25.364-19.385-31.997-30.216-5.017-8.151-8.808-17.301-11.375-27.45l28.88-21.479c.724 9.693 3.342 18.454 7.852 26.283 5.096 9.148 11.952 16.451 20.568 21.91 10.812 6.85 21.57 8.93 32.271 6.24 9.873-2.505 18.021-8.826 24.444-18.963 6.101-9.63 7.73-19.488 4.887-29.576-2.949-9.919-9.915-18.357-20.896-25.314-12.165-7.707-26.63-11.781-43.397-12.223l76.215-76.013 78.053 49.451Z" fill="currentColor" style="mix-blend-mode:overlay"/><path fill-rule="evenodd" clip-rule="evenodd" d="M291.571 227.928c21.4 0 39.6-9.2 54.6-27.6 15.2-18.6 22.8-44.2 22.8-76.8 0-32.8-7.6-58.4-22.8-76.8-15-18.6-33.2-27.9-54.6-27.9s-39.7 9.3-54.9 27.9c-5.854 7.18-10.565 15.443-14.135 24.786l12.613-3.589 5.163 5.51 14.828-2.624 7.626 2.766a46.76 46.76 0 0 1 2.105-3.449c8-11.8 16.9-17.7 26.7-17.7s18.6 5.9 26.4 17.7c8 11.6 12 29.3 12 53.1s-3.9 41.6-11.7 53.4c-7.8 11.8-16.7 17.7-26.7 17.7s-18.9-5.9-26.7-17.7c-7.8-11.8-11.7-29.6-11.7-53.4 0-17.626 2.139-31.907 6.417-42.841l-5.523-4.145-14.757 1.195-6.069-6.613-10.819.996c-5.499 14.533-8.249 31.669-8.249 51.408 0 32.8 7.5 58.5 22.5 77.1 15.2 18.4 33.5 27.6 54.9 27.6Zm170.508 0c21.4 0 39.6-9.2 54.6-27.6 15.2-18.6 22.8-44.2 22.8-76.8 0-32.8-7.6-58.4-22.8-76.8-15-18.6-33.2-27.9-54.6-27.9s-39.7 9.3-54.9 27.9c-15 18.4-22.5 43.9-22.5 76.5 0 32.8 7.5 58.5 22.5 77.1 15.2 18.4 33.5 27.6 54.9 27.6Zm0-175.5c9.8 0 18.6 5.9 26.4 17.7 8 11.6 12 29.3 12 53.1s-3.9 41.6-11.7 53.4c-7.8 11.8-16.7 17.7-26.7 17.7s-18.9-5.9-26.7-17.7c-7.8-11.8-11.7-29.6-11.7-53.4 0-23.8 3.9-41.5 11.7-53.1 8-11.8 16.9-17.7 26.7-17.7Z" fill="currentColor" style="mix-blend-mode:overlay"/></svg>