<?xml version="1.0" encoding="UTF-8"?>
<!DOCTYPE svg PUBLIC "-//W3C//DTD SVG 1.1//EN" "http://www.w3.org/Graphics/SVG/1.1/DTD/svg11.dtd"><svg xmlns="http://www.w3.org/2000/svg" xmlns:xlink="http://www.w3.org/1999/xlink"><symbol id="tg" viewBox="0 0 21 17"><path fill-rule="evenodd" clip-rule="evenodd" d="M1.444 7.318C7.08 4.92 10.84 3.338 12.72 2.574 18.09.392 19.206.013 19.934 0c.16-.003.517.036.75.22.195.155.249.364.274.511.026.147.058.482.033.744-.291 2.987-1.55 10.235-2.191 13.58-.271 1.416-.805 1.89-1.322 1.937-1.123.1-1.975-.725-3.063-1.422-1.702-1.09-2.663-1.768-4.315-2.831-1.91-1.23-.672-1.905.416-3.009.285-.289 5.233-4.685 5.328-5.083.012-.05.024-.236-.09-.334-.113-.098-.28-.065-.4-.038-.17.038-2.89 1.793-8.156 5.266-.772.518-1.471.77-2.097.757-.69-.015-2.019-.382-3.006-.695C.884 9.218-.08 9.015.005 8.362c.044-.34.523-.688 1.439-1.044Z" fill="currentColor"/></symbol><symbol id="rutube" viewBox="0 0 17 18"><path d="M11.667 17.965 8.16 12.757H4.617v5.208H0V0h8.088c4.617 0 7.695 2.447 7.695 6.326 0 2.342-1.18 4.264-3.15 5.383L17 18h-5.333v-.035ZM4.653 8.738h3.4c1.79 0 3.15-.944 3.15-2.447 0-1.468-1.397-2.376-3.15-2.376h-3.4v4.823Z" fill="currentColor"/></symbol><symbol id="dzen" viewBox="0 0 22 22"><path fill-rule="evenodd" clip-rule="evenodd" d="M10.67 0c-.055 4.46-.36 6.966-2.032 8.638C6.966 10.311 4.46 10.615 0 10.67v.66c4.46.055 6.966.36 8.638 2.032 1.673 1.672 1.977 4.179 2.032 8.638h.66c.055-4.46.36-6.966 2.032-8.638C15.034 11.69 17.54 11.385 22 11.33v-.66c-4.46-.055-6.966-.36-8.638-2.032C11.689 6.966 11.385 4.459 11.33 0h-.66Z" fill="currentColor"/></symbol><symbol id="tiktok" viewBox="0 0 20 22"><path d="M19.216 5.758c-1.2 0-2.308-.398-3.198-1.069A5.304 5.304 0 0 1 13.905.5h-3.429v9.37l-.004 5.132A3.103 3.103 0 0 1 7.188 18.1a3.09 3.09 0 0 1-1.42-.436 3.104 3.104 0 0 1-1.517-2.615 3.106 3.106 0 0 1 4.089-2.992V8.575A6.748 6.748 0 0 0 7.35 8.5a6.575 6.575 0 0 0-4.94 2.21 6.433 6.433 0 0 0-1.623 3.88A6.424 6.424 0 0 0 2.7 19.596a6.576 6.576 0 0 0 4.65 1.904c.334 0 .664-.025.989-.073a6.553 6.553 0 0 0 3.66-1.83 6.42 6.42 0 0 0 1.927-4.57l-.018-7.663a8.668 8.668 0 0 0 5.316 1.807V5.757h-.01Z" fill="currentColor"/></symbol><symbol id="vk" viewBox="0 0 28 17"><path d="M15.206 16.5C5.98 16.5.719 10.306.5 0h4.62c.153 7.565 3.56 10.769 6.257 11.43V0h4.352v6.524c2.664-.28 5.463-3.254 6.408-6.524h4.351c-.725 4.03-3.76 7.003-5.92 8.225 2.16.991 5.617 3.584 6.932 8.275h-4.79c-1.028-3.138-3.591-5.566-6.981-5.896V16.5h-.523Z" fill="currentColor"/></symbol><symbol id="ok" viewBox="0 0 14 22"><path d="M6.891 3.676c1.282 0 2.325 1.007 2.325 2.244 0 1.237-1.043 2.243-2.325 2.243-1.28 0-2.324-1.006-2.324-2.243 0-1.237 1.043-2.244 2.324-2.244Zm0 7.662c3.097 0 5.614-2.43 5.614-5.418C12.505 2.931 9.989.5 6.891.5 3.795.5 1.277 2.931 1.277 5.92c0 2.988 2.518 5.418 5.614 5.418Zm2.271 4.42a10.721 10.721 0 0 0 3.26-1.302c.37-.224.631-.581.728-.992.097-.41.021-.841-.211-1.197a1.611 1.611 0 0 0-.441-.45 1.674 1.674 0 0 0-1.228-.271 1.68 1.68 0 0 0-.6.222 7.347 7.347 0 0 1-7.558 0 1.677 1.677 0 0 0-1.241-.205c-.21.046-.41.132-.586.253a1.61 1.61 0 0 0-.44.45 1.541 1.541 0 0 0-.213 1.198c.097.41.359.768.728.992a10.73 10.73 0 0 0 3.259 1.303l-3.139 3.03A1.56 1.56 0 0 0 1 19.912c0 .421.173.825.482 1.123.308.298.727.465 1.163.465.436 0 .855-.168 1.163-.465l3.084-2.978 3.085 2.978c.152.147.334.264.533.344a1.694 1.694 0 0 0 1.791-.344c.153-.148.275-.322.358-.515a1.538 1.538 0 0 0-.357-1.73l-3.139-3.031Z" fill="currentColor"/></symbol><symbol id="yt" viewBox="0 0 24 18"><path fill-rule="evenodd" clip-rule="evenodd" d="M21.39.544c1.028.293 1.839 1.151 2.116 2.24.514 1.987.494 6.13.494 6.13s0 4.123-.494 6.111c-.277 1.089-1.088 1.947-2.116 2.24-1.878.523-9.39.523-9.39.523s-7.493 0-9.39-.544C1.582 16.95.77 16.093.494 15.004 0 13.037 0 8.895 0 8.895s0-4.123.494-6.11C.771 1.694 1.601.815 2.61.523 4.488 0 12 0 12 0s7.512 0 9.39.544ZM15.63 8.5l-6.247 3.809V4.69L15.63 8.5Z" fill="currentColor"/></symbol><symbol id="apple" viewBox="0 0 14 17"><path d="M12.93 5.808c-.073.046-1.807 1.008-1.807 3.142.082 2.433 2.188 3.286 2.225 3.286-.037.046-.319 1.163-1.153 2.333-.663 1.009-1.399 2.026-2.515 2.026-1.063 0-1.444-.672-2.67-.672-1.316 0-1.689.672-2.697.672-1.116 0-1.906-1.072-2.605-2.07C.8 13.216.028 11.164 0 9.194c-.018-1.044.182-2.07.69-2.942.717-1.217 1.997-2.043 3.396-2.07 1.07-.036 2.024.735 2.678.735.626 0 1.798-.735 3.123-.735.572 0 2.098.173 3.042 1.625ZM6.674 3.974c-.19-.953.336-1.907.826-2.515C8.127.724 9.116.225 9.97.225a3.555 3.555 0 0 1-.908 2.569c-.554.736-1.507 1.29-2.388 1.18Z" fill="currentColor"/></symbol><symbol id="ya-music" viewBox="0 0 17 21"><path d="M8.533 20.03c4.235 0 7.668-3.428 7.668-7.658s-3.433-7.66-7.668-7.66-7.668 3.43-7.668 7.66 3.433 7.659 7.668 7.659Z" fill="currentColor" fill-opacity=".45"/><path fill-rule="evenodd" clip-rule="evenodd" d="M12.374 4.566v7.165l-.017.005v.01c0 .7-.05 1.354-.146 1.688a3.825 3.825 0 0 1-3.687 2.768 3.808 3.808 0 0 1-3.812-3.824 3.808 3.808 0 0 1 3.812-3.824 3.824 3.824 0 0 1 3.18 1.69 3.876 3.876 0 0 1-.094-.75V.882l4.99 1.527v3.459l-4.226-1.3Z" fill="currentColor"/></symbol><symbol id="tw" viewBox="0 0 24 20"><path d="M21.581 5.367v.628c0 6.5-4.963 14.005-14.01 14.005-2.796 0-5.372-.816-7.571-2.198.377.031.785.063 1.162.063a9.97 9.97 0 0 0 6.126-2.104 4.875 4.875 0 0 1-4.586-3.423c.314.063.596.094.942.094.44 0 .88-.062 1.288-.188A4.888 4.888 0 0 1 .974 7.44v-.063a4.84 4.84 0 0 0 2.23.628A4.93 4.93 0 0 1 1.005 3.89c0-.91.252-1.758.66-2.48A14.013 14.013 0 0 0 11.81 6.56c-.094-.346-.125-.754-.125-1.131A4.92 4.92 0 0 1 16.618.5c1.413 0 2.701.597 3.581 1.539 1.13-.22 2.167-.628 3.141-1.194-.377 1.162-1.162 2.104-2.167 2.732C22.178 3.452 23.12 3.2 24 2.792a9 9 0 0 1-2.419 2.575Z" fill="currentColor"/></symbol><symbol id="yappy" viewBox="0 0 26 14"><path d="M10.719 5.161c.776 2.408-.32 4.918-2.449 5.607-2.129.69-4.484-.703-5.26-3.11a5.653 5.653 0 0 1-.07-.234l-1.276.385c.024.086.05.173.077.259 1.032 3.2 4.162 5.05 6.992 4.135 2.83-.916 4.286-4.253 3.254-7.453l-.017-.049-1.277.385.026.075Z" fill="currentColor"/><path d="M8.27 10.768c2.129-.689 3.225-3.2 2.449-5.607l-.027-.075L2.94 7.424c.021.077.044.155.07.233.776 2.408 3.131 3.8 5.26 3.111Z" fill="currentColor"/><path d="M6.672 10.416a.995.995 0 0 1-.904 1.079.995.995 0 0 1-1.075-.908.994.994 0 1 1 1.979-.17Z" fill="currentColor"/><path fill-rule="evenodd" clip-rule="evenodd" d="M12.355 4.583a.402.402 0 0 1-.267.503L1.461 8.337a.402.402 0 1 1-.235-.77l10.627-3.25a.402.402 0 0 1 .502.266Z" fill="currentColor"/><path d="M23.613 1.274c.776 2.407-.32 4.918-2.45 5.607-2.128.69-4.483-.704-5.26-3.111a5.666 5.666 0 0 1-.069-.234l-1.277.385c.025.087.05.174.078.26 1.032 3.2 4.162 5.05 6.991 4.135 2.83-.916 4.287-4.253 3.255-7.453l-.017-.049-1.277.385.026.075Z" fill="currentColor"/><path d="M21.164 6.881c2.129-.69 3.225-3.2 2.448-5.607l-.025-.075-7.753 2.337c.021.078.044.156.07.234.776 2.407 3.13 3.8 5.26 3.111Z" fill="currentColor"/><path d="M19.566 6.53a.995.995 0 0 1-.904 1.078.996.996 0 0 1-.172-1.986.995.995 0 0 1 1.076.907Z" fill="currentColor"/><path fill-rule="evenodd" clip-rule="evenodd" d="M25.25.698a.402.402 0 0 1-.27.501L14.306 4.423a.402.402 0 0 1-.232-.77L24.748.43a.402.402 0 0 1 .501.269ZM17.717 10.863c.22.032.373.236.341.456-.108.75-.39 1.304-.774 1.698a2.668 2.668 0 0 1-1.269.711c-.425.11-.83.12-1.125.106a4.018 4.018 0 0 1-.463-.05l-.03-.005-.01-.002h-.004l.082-.394-.083.393a.403.403 0 0 1 .165-.787h.003l.017.003.075.012c.067.01.166.02.287.026.243.012.563.002.887-.081.323-.083.638-.233.891-.493.251-.258.467-.647.555-1.252a.402.402 0 0 1 .455-.34Z" fill="currentColor"/></symbol></svg>