<svg fill="none" xmlns="http://www.w3.org/2000/svg" viewBox="0 0 56 77"><path d="M54.644 15.954c.302.038-.058 0-.118 0l-.34-.028h-.565c-.109 0-.215 0-.324.022h-.16.042c-.19.01-.377.043-.556.098a7.615 7.615 0 0 0-.548.137c-.103.03-.203.063-.303.098l-.151.052c.133-.052.142-.054.033 0a7.85 7.85 0 0 0-1.05.538 1.186 1.186 0 0 1-.812.097 1.078 1.078 0 0 1-.655-.444.906.906 0 0 1-.1-.732c.072-.247.246-.459.487-.592 1.68-.994 3.707-1.39 5.691-1.114.203.051.385.155.523.3a.928.928 0 0 1 .253.509.887.887 0 0 1-.1.55c-.093.172-.24.314-.421.41a1.375 1.375 0 0 1-.826.099ZM29.765 5.868v-.615c0-.105-.019-.21-.028-.308-.01-.099 0-.105 0 .055 0-.052 0-.104-.025-.157a6.905 6.905 0 0 0-.318-1.178l-.098-.259a4.334 4.334 0 0 1 .019.043l-.067-.145a7.93 7.93 0 0 0-.298-.56 5.899 5.899 0 0 0-.349-.529c-.035-.05-.222-.348-.066-.095a2.164 2.164 0 0 0-.216-.271 1.094 1.094 0 0 1-.319-.77c0-.286.114-.562.319-.769.435-.37 1.193-.455 1.586 0a8.106 8.106 0 0 1 2.093 5.54 1.062 1.062 0 0 1-.307.81 1.127 1.127 0 0 1-.817.34 1.156 1.156 0 0 1-.817-.34 1.064 1.064 0 0 1-.307-.81l.015.018Z" fill="#1E1E1E"/><path d="M2.151 63.39c.224-.144.457-.272.698-.383 1.769-.827 15.095-5.789 14.05-8.592-1.734-4.655-1.666-9.71-2.281-14.619a28.125 28.125 0 0 0-.602-3.075 20.836 20.836 0 0 0-.508-1.65c-.047-.133-.1-.27-.15-.401 0-.033-.04-.097-.065-.158-.025-.06-.036-.082-.043-.104a26.79 26.79 0 0 0-.218-.458 2.693 2.693 0 0 1-.255-1.955 2.585 2.585 0 0 1 1.164-1.514c1.142-.606 2.864-.359 3.473.909 1.317 2.689 1.919 5.517 2.284 8.464v-.036a82.63 82.63 0 0 0 2.095-10.204c.422-3.233.654-6.488.694-9.749 0-1.325 1.157-2.6 2.539-2.535a2.575 2.575 0 0 1 2.534 2.535c0 .509 0 1.02-.028 1.529.118-1.017.232-2.037.358-3.054a2.786 2.786 0 0 1 .74-1.79 2.539 2.539 0 0 1 3.581 0c.423.462.82 1.142.741 1.79l-.57 4.805.055-.358a2.506 2.506 0 0 1 1.163-1.515 2.535 2.535 0 0 1 3.473.91c.309.602.399 1.293.254 1.954-.096.645-.197 1.29-.293 1.937.102.008.205.008.308 0 1.335-.358 3.01 1.243 2.864 2.66-.741 8.135-1.909 16.488-4.801 24.192-2.532 6.742-9.28 10.741-14.987 14.5L9.74 74.482C8.918 75.026 8 75.5 7.1 75.775" stroke="#1E1E1E" stroke-width="1.5" stroke-linecap="round" stroke-linejoin="round"/><path d="M36.869 25.418c.043-.3.551-.29.508 0l-1.686 11.74c-.043.3-.551.29-.508 0l1.686-11.74ZM21.936 42.005a14.736 14.736 0 0 1 2.885 14.063.255.255 0 0 1-.483-.16 14.21 14.21 0 0 0-2.782-13.566.254.254 0 0 1 .38-.337Z" fill="#1E1E1E" stroke="#1E1E1E" stroke-miterlimit="10"/><path d="M16.214 22.504c1.153 0 1.153 1.79 0 1.79-1.152 0-1.152-1.79 0-1.79Z" fill="#1E1E1E"/><path d="M32.197 22.582c.06-.5.544-.272.483.226-.451 3.807-.905 7.614-1.36 11.42-.058.499-.541.273-.484-.225l1.36-11.42Z" fill="#1E1E1E" stroke="#1E1E1E" stroke-miterlimit="10"/><path d="M43.782 21.558c1.153 0 1.157 1.79 0 1.79-1.156 0-1.152-1.79 0-1.79Z" fill="#1E1E1E"/><path d="M27.252 21.498c.029-.312.537-.312.509 0L26.687 33.09c-.029.308-.537.308-.509 0 .363-3.87.721-7.734 1.074-11.593ZM25.251 35.34a38.127 38.127 0 0 1 10.4 6.16c.251.208-.107.566-.357.359a37.454 37.454 0 0 0-10.18-6.033c-.296-.118-.167-.609.137-.487Z" fill="#1E1E1E" stroke="#1E1E1E" stroke-miterlimit="10"/><path d="M40.585 61.79c.14-.09.247-.133-.168.125l.025-.025.143-.1Zm-2.305 2.266c-.247.358-.215.294-.136.18l.114-.155.022-.025ZM22.924 7.205a1.27 1.27 0 1 1-1.271 1.267 1.282 1.282 0 0 1 1.27-1.267Zm17.314 1.268a1.271 1.271 0 1 1-1.267 1.27 1.282 1.282 0 0 1 1.267-1.27ZM.751 63.09c-.075.161-.146.304 0 0Z" fill="#1E1E1E"/></svg>