<svg fill="none" xmlns="http://www.w3.org/2000/svg" viewBox="0 0 152 189"><g clip-path="url(#a)"><g clip-path="url(#b)"><path fill-rule="evenodd" clip-rule="evenodd" d="M152 153.997H.23V0H152v153.997Z" fill="#fff"/><path fill-rule="evenodd" clip-rule="evenodd" d="m9.117 71.84 2.911-.994v-3.745l2.375-.84c2.452-.84 4.06-2.446 4.06-5.197 0-2.599-1.991-2.904-4.06-2.216l-5.286 1.834V71.84Zm2.911-9.783 1.992-.687c.92-.306 1.532-.153 1.532.917 0 .993-.612 1.605-1.532 1.91l-1.992.688v-2.828ZM36.238 54.72l1.302 3.44-2.528.84 1.226-4.28Zm-5.593 9.936 2.988-.994.69-2.216 3.907-1.376.69 1.758 3.064-1.07-4.137-9.706-2.988.994-4.214 12.61ZM61.597 51.51l-3.601 1.224c.996-2.37 1.226-4.204 1.226-6.19v-.383l2.375-.84v6.19Zm4.137 3.822v-5.197l-1.303.459V41.88l-8.044 2.751v1.988c0 2.445-.383 4.738-1.456 7.184l-1.149.382v5.197l2.758-.918V55.79l6.436-2.216v2.752l2.758-.994ZM87.339 34.086l-3.218 1.146-3.6 8.56v-7.337l-2.835.993v11.158l3.294-1.146 3.524-8.33v7.107l2.835-.993V34.086ZM99.29 35.385c0 3.21 1.992 5.12 5.516 3.898 3.525-1.223 5.517-4.51 5.517-7.72s-1.992-5.12-5.517-3.897c-3.524 1.223-5.516 4.433-5.516 7.719Zm2.912-1.07c0-1.681.689-3.515 2.604-4.203 1.839-.612 2.605.764 2.605 2.445 0 1.682-.689 3.516-2.605 4.204-1.838.611-2.604-.765-2.604-2.446Z" fill="#000"/><path fill-rule="evenodd" clip-rule="evenodd" d="M151.694 158.354H0V189h151.694v-30.646Z" fill="#fff"/><path d="M22.371 167.219h-7.278l-.843 3.974h6.742l-.92 4.432h-6.741l-.996 4.509h7.584l-.995 4.51H5.668l4.674-21.935H23.29l-.919 4.51ZM43.823 184.644h-6.13l-.919-8.025c-.153-1.146-.23-2.216-.306-3.363-.077-1.146-.153-2.216-.23-3.363-.077 1.3-.23 2.599-.46 3.898l-.69 3.898-1.378 6.955h-5.363l4.75-21.935h6.206l.842 8.331c.077 1.07.23 2.14.307 3.286.076 1.07.153 2.14.153 3.286.153-1.681.383-3.057.536-4.127.154-1.07.307-1.91.383-2.445l1.61-8.254h5.362l-4.673 21.858ZM70.714 167.219h-7.278l-.843 3.974h6.742l-.92 4.432h-6.742l-.995 4.509h7.584l-.996 4.51H54.012l4.674-21.935h12.947l-.92 4.51ZM95.23 167.524c0 1.911-.46 3.363-1.456 4.509-.92 1.147-2.298 1.682-4.06 1.758.46.077.92.229 1.302.382.383.153.69.382.996.688.306.306.46.612.613.994.153.382.23.84.23 1.375 0 .688-.077 1.3-.153 1.911-.077.611-.23 1.299-.307 1.911a17.209 17.209 0 0 1-.23 1.528c-.076.382-.076.688-.076.917 0 .535.153.841.46.917v.23h-6.053c-.077-.23-.153-.459-.153-.612v-.535c0-.229 0-.535.076-.917.077-.382.154-.764.23-1.376.153-.764.23-1.452.383-2.063.077-.611.154-1.07.154-1.452 0-.764-.154-1.223-.46-1.529-.307-.305-.843-.458-1.532-.458h-.767l-1.915 8.942h-5.746l4.75-21.935h6.589c.92 0 1.762 0 2.605.077.842.076 1.609.229 2.298.611.69.306 1.226.765 1.609 1.452.46.612.613 1.529.613 2.675Zm-5.823 1.147c0-.688-.153-1.147-.536-1.452-.383-.306-.996-.459-1.915-.459h-.613l-1.15 5.273h.613c.537 0 .92 0 1.226-.076.307-.076.613-.153.843-.306.383-.229.766-.611.996-1.146a3.376 3.376 0 0 0 .536-1.834ZM119.823 167.524v.994c0 .153 0 .306-.077.458 0 .153-.077.383-.077.612h-5.516c.077-.459.153-.841.23-1.147 0-.305.077-.535.077-.764 0-.993-.46-1.528-1.379-1.528-.383 0-.69.076-.92.305a4.79 4.79 0 0 0-.689.917c-.23.383-.383.918-.537 1.605-.153.612-.383 1.453-.536 2.293-.076.382-.153.764-.23 1.07l-.23.917c-.076.306-.153.688-.229 1.07-.077.382-.154.917-.307 1.452-.23 1.147-.383 1.987-.459 2.599-.077.611-.154.993-.154 1.375 0 1.147.46 1.682 1.456 1.682.46 0 .843-.153 1.149-.382.307-.23.536-.535.69-.917.153-.383.306-.765.383-1.147.076-.382.23-.764.306-1.146.077-.306.077-.535.153-.688.077-.153.077-.382.154-.688h-1.992l.766-3.668h7.431l-2.528 11.769h-3.907v-1.758c-.537.841-1.226 1.376-1.992 1.758-.766.306-1.609.535-2.605.535-3.524 0-5.363-1.758-5.363-5.197 0-.84.077-1.605.23-2.445.153-.841.306-1.605.46-2.446.229-1.146.459-2.216.689-3.133.23-.918.46-1.835.69-2.675.306-1.147.689-2.14 1.149-2.981a7.618 7.618 0 0 1 1.532-2.216c.613-.612 1.379-1.07 2.298-1.376.92-.306 1.992-.458 3.295-.458.843 0 1.685.076 2.528.229a5.981 5.981 0 0 1 2.145.841 4.419 4.419 0 0 1 1.532 1.604c.23.765.384 1.605.384 2.675ZM137.827 176.084l-1.839 8.56h-5.746l1.839-8.56-2.912-13.375h6.359l.383 4.204c.077.688.077 1.376.154 2.063 0 .688 0 1.376-.077 2.064.23-.688.536-1.452.843-2.14.306-.688.613-1.452.919-2.064l2.069-4.127h6.282l-8.274 13.375Z" fill="#000"/><path d="M111.702 45.015v12.992l8.81-3.133s.077 34.162 0 35.92c-.996 10.393-11.875 7.107-15.399 4.432-1.073-.84-9.27-6.496-9.27-6.496 7.891-2.828 20.302-12.916 14.173-26.673-7.661-13.985-21.222-9.4-21.222-9.4L51.79 65.573v12.763l5.363-1.91v17.73L33.327 71.84 8.734 80.4v12.763l7.431-2.752v36.379l-7.278 2.598v13.375l27.887-9.706v-30.035l15.4 13.985 39.532-10.47s5.21 4.127 9.117 6.955c6.665 4.815 14.786 5.885 23.826 3.439 9.96-2.675 18.541-11.464 18.541-24.303 0-4.586.076-58.542.076-58.542l-31.564 10.929Zm-23.98 33.398c-2.605.917-10.42 3.82-10.42 3.82V69.93s5.363-1.91 8.045-2.827c2.605-.918 4.903 1.681 5.056 4.28.153 2.216.613 5.502-2.681 7.03Zm41.984-44.556c7.431 0 13.407-6.038 13.407-13.375 0-7.413-6.052-13.374-13.407-13.374-7.432 0-13.484 6.037-13.484 13.374.076 7.337 6.052 13.375 13.484 13.375Z" fill="#E30613"/><path d="m28.806 135.808-8.657-8.712.766-3.516 15.86-.764v10.241l-7.969 2.751Z" fill="#AF191D"/><path d="M143.189 91.71c-.689 10.242-7.201 18.725-20.915 19.489-6.435.535-10.266-1.758-13.407-3.515-5.899-2.905-15.553-11.617-21.682-13.91-4.367-1.758-10.342-2.445-16.395-1.07-6.052 1.376-9.423 3.516-11.875 5.426-2.451 1.911-6.359 5.656-7.355 6.649-.919.994-3.677 4.127-3.83 4.204-.23 0-.92-.841-1.303-1.299-.383-.459-.919-1.376-.996-1.376-.23.076-1.685 2.14-1.838 3.286-.154 1.147.46 2.752.536 3.134 0 .382-.46.688-.613.764-.153 0-1.302-1.452-1.456-1.452-.153 0-.69.917-.842 1.605-.154.611.076 2.216.076 2.216-1.455 1.223-3.907 2.522-6.665 3.286-1.762.459-10.19 1.3-10.42 1.376-.23.153-4.136 3.516-4.136 3.516l.153 3.21.843-.765 1.379 2.522.842-1.605s1.226 1.605 1.839 2.37c.306-1.3 1.762-4.051 3.907-4.739 2.069-.764 12.718-1.07 13.024-1.07 0 .306-.613 1.911-.613 1.987 0 .077 2.299 2.522 2.452 2.599.153.076 1.303-.306 1.38-.382.076-.077.229-.306.229-.535.077 0 .843.076 1.302-.23-1.072-.305-1.072-.993-.842-1.528.306-.535 1.992-.841 2.911-.229.92.611 1.379 1.528.92 2.674-.384.918-1.61.535-1.84.459.077.153.92.764.997.841v.305s.23.383.383.383 3.677-1.911 3.983-2.14c.23-.153.996-.918 1.456-1.758 0 0-1.226-.764-1.149-2.217.077-1.375 1.302-2.216 2.758-2.063 1.38.153 2.145 1.376 1.762 2.981-.306 1.299-6.818 8.789-12.641 11.693-3.83 2.216-7.355 1.91-7.585 1.987-.23.076-3.677 2.98-3.677 2.98l-.153 2.675.69-.305.995 2.827.69-1.07 2.145 2.293.46-1.911 2.681 1.987s.153-.993.23-1.834c.383-.305 4.29-3.897 4.75-4.203.383-.382 6.206-3.286 11.338-6.726 5.823-3.897 11.492-8.024 11.646-9.018-.766-.611-3.525-3.21-3.448-6.114.077-2.904 3.448-5.655 7.355-7.413 3.907-1.758 8.964-1.146 12.411 1.376 2.299 1.605 12.258 8.483 25.666 7.795 14.02-.764 22.294-5.35 27.197-13.757 4.75-8.865 4.367-15.132 4.29-16.66Z" fill="#000"/><path d="m44.13 120.905.918-4.127 1.303.535-1.686 3.363-.536.229Z" fill="#fff"/></g></g><defs><clipPath id="a"><path fill="#fff" d="M0 0h152v189H0z"/></clipPath><clipPath id="b"><path fill="#fff" d="M0 0h152v189H0z"/></clipPath></defs></svg>