<svg width="152" height="189" viewBox="0 0 152 189" fill="none" xmlns="http://www.w3.org/2000/svg">
<g clip-path="url(#clip0_4602_110518)">
<g clip-path="url(#clip1_4602_110518)">
<path fill-rule="evenodd" clip-rule="evenodd" d="M152 153.997H0.229736V0H152V153.997Z" fill="white"/>
<path fill-rule="evenodd" clip-rule="evenodd" d="M9.11694 71.8399L12.0282 70.8463V67.1015L14.4032 66.2608C16.8548 65.4201 18.4637 63.8152 18.4637 61.0639C18.4637 58.4654 16.4718 58.1597 14.4032 58.8476L9.11694 60.6818V71.8399ZM12.0282 62.0574L14.0202 61.3696C14.9395 61.0639 15.5524 61.2167 15.5524 62.2867C15.5524 63.2802 14.9395 63.8916 14.0202 64.1973L12.0282 64.8852V62.0574V62.0574Z" fill="black"/>
<path fill-rule="evenodd" clip-rule="evenodd" d="M36.238 54.7207L37.5404 58.1598L35.0122 59.0005L36.238 54.7207ZM30.6453 64.656L33.6332 63.6624L34.3227 61.4461L38.2299 60.0704L38.9195 61.8282L41.984 60.7583L37.8469 51.0522L34.859 52.0458L30.6453 64.656Z" fill="black"/>
<path fill-rule="evenodd" clip-rule="evenodd" d="M61.5967 51.5107L57.9959 52.7335C58.9919 50.3643 59.2217 48.5301 59.2217 46.5431V46.1609L61.5967 45.3202V51.5107V51.5107ZM65.7338 55.332V50.135L64.4314 50.5936V41.8811L56.3871 44.6324V46.6195C56.3871 49.0651 56.004 51.3579 54.9314 53.8035L53.7822 54.1856V59.3825L56.5403 58.4654V55.7905L62.9758 53.5742V56.3255L65.7338 55.332Z" fill="black"/>
<path fill-rule="evenodd" clip-rule="evenodd" d="M87.3388 34.0857L84.121 35.2321L80.5202 43.7917V36.4549L77.6855 37.4484V48.6065L80.9799 47.4601L84.5041 39.1298V46.2373L87.3388 45.2438V34.0857Z" fill="black"/>
<path fill-rule="evenodd" clip-rule="evenodd" d="M99.2903 35.385C99.2903 38.5949 101.282 40.5055 104.806 39.2827C108.331 38.0599 110.323 34.7736 110.323 31.5637C110.323 28.3539 108.331 26.4432 104.806 27.6661C101.282 28.8889 99.2903 32.0987 99.2903 35.385ZM102.202 34.3151C102.202 32.6337 102.891 30.7995 104.806 30.1117C106.645 29.5003 107.411 30.8759 107.411 32.5573C107.411 34.2386 106.722 36.0728 104.806 36.7607C102.968 37.3721 102.202 35.9964 102.202 34.3151Z" fill="black"/>
<path fill-rule="evenodd" clip-rule="evenodd" d="M151.694 158.354H0V189H151.694V158.354Z" fill="black"/>
<path d="M22.371 167.219H15.0928L14.2501 171.193H20.992L20.0727 175.625H13.3307L12.3348 180.134H19.9194L18.9235 184.644H5.66943L10.3428 162.709H23.2904L22.371 167.219Z" fill="white"/>
<path d="M43.8227 184.644H37.6937L36.7743 176.619C36.6211 175.473 36.5445 174.403 36.4679 173.256C36.3913 172.11 36.3147 171.04 36.2381 169.893C36.1614 171.193 36.0082 172.492 35.7784 173.791C35.5485 175.09 35.3187 176.39 35.0889 177.689L33.7098 184.644H28.3469L33.0969 162.709H39.3026L40.1453 171.04C40.2219 172.11 40.3751 173.18 40.4518 174.326C40.5284 175.396 40.605 176.466 40.605 177.612C40.7582 175.931 40.9881 174.555 41.1413 173.485C41.2945 172.415 41.4477 171.575 41.5243 171.04L43.1332 162.786H48.4961L43.8227 184.644Z" fill="white"/>
<path d="M70.7138 167.219H63.4356L62.5928 171.193H69.3348L68.4154 175.625H61.6735L60.6775 180.134H68.2622L67.2662 184.644H54.0122L58.6856 162.709H71.6332L70.7138 167.219Z" fill="white"/>
<path d="M95.2298 167.524C95.2298 169.435 94.7702 170.887 93.7742 172.033C92.8548 173.18 91.4758 173.715 89.7137 173.791C90.1734 173.868 90.6331 174.02 91.0161 174.173C91.3992 174.326 91.7056 174.555 92.0121 174.861C92.3185 175.167 92.4718 175.473 92.625 175.855C92.7782 176.237 92.8548 176.695 92.8548 177.23C92.8548 177.918 92.7782 178.53 92.7016 179.141C92.625 179.752 92.4718 180.44 92.3952 181.052C92.3185 181.739 92.2419 182.198 92.1653 182.58C92.0887 182.962 92.0887 183.268 92.0887 183.497C92.0887 184.032 92.2419 184.338 92.5484 184.414V184.644H86.496C86.4193 184.414 86.3427 184.185 86.3427 184.032C86.3427 183.879 86.3427 183.65 86.3427 183.497C86.3427 183.268 86.3427 182.962 86.4193 182.58C86.496 182.198 86.5726 181.816 86.6492 181.204C86.8024 180.44 86.879 179.752 87.0322 179.141C87.1089 178.53 87.1855 178.071 87.1855 177.689C87.1855 176.925 87.0322 176.466 86.7258 176.16C86.4193 175.855 85.8831 175.702 85.1935 175.702H84.4274L82.5121 184.644H76.7661L81.5161 162.709H88.1048C89.0242 162.709 89.8669 162.709 90.7097 162.786C91.5524 162.862 92.3185 163.015 93.0081 163.397C93.6976 163.703 94.2339 164.162 94.6169 164.849C95.0766 165.461 95.2298 166.378 95.2298 167.524ZM89.4072 168.671C89.4072 167.983 89.254 167.524 88.871 167.219C88.4879 166.913 87.875 166.76 86.9556 166.76H86.3427L85.1935 172.033H85.8064C86.3427 172.033 86.7258 172.033 87.0322 171.957C87.3387 171.881 87.6452 171.804 87.875 171.651C88.2581 171.422 88.6411 171.04 88.871 170.505C89.254 169.893 89.4072 169.282 89.4072 168.671Z" fill="white"/>
<path d="M119.823 167.524C119.823 167.754 119.823 167.906 119.823 168.059C119.823 168.212 119.823 168.365 119.823 168.518C119.823 168.671 119.823 168.824 119.746 168.976C119.746 169.129 119.669 169.359 119.669 169.588H114.153C114.23 169.129 114.306 168.747 114.383 168.441C114.383 168.136 114.46 167.906 114.46 167.677C114.46 166.684 114 166.149 113.081 166.149C112.698 166.149 112.391 166.225 112.161 166.454C111.931 166.684 111.702 166.989 111.472 167.371C111.242 167.754 111.089 168.289 110.935 168.976C110.782 169.588 110.552 170.429 110.399 171.269C110.323 171.651 110.246 172.033 110.169 172.339C110.093 172.645 110.016 172.951 109.939 173.256C109.863 173.562 109.786 173.944 109.71 174.326C109.633 174.708 109.556 175.243 109.403 175.778C109.173 176.925 109.02 177.765 108.944 178.377C108.867 178.988 108.79 179.37 108.79 179.752C108.79 180.899 109.25 181.434 110.246 181.434C110.706 181.434 111.089 181.281 111.395 181.052C111.702 180.822 111.931 180.517 112.085 180.135C112.238 179.752 112.391 179.37 112.468 178.988C112.544 178.606 112.698 178.224 112.774 177.842C112.851 177.536 112.851 177.307 112.927 177.154C113.004 177.001 113.004 176.772 113.081 176.466H111.089L111.855 172.798H119.286L116.758 184.567H112.851V183.803C112.851 183.65 112.851 183.497 112.851 183.344C112.851 183.192 112.851 183.039 112.851 182.809C112.314 183.65 111.625 184.185 110.859 184.567C110.093 184.873 109.25 185.102 108.254 185.102C104.73 185.102 102.891 183.344 102.891 179.905C102.891 179.065 102.968 178.3 103.121 177.46C103.274 176.619 103.427 175.855 103.581 175.014C103.81 173.868 104.04 172.798 104.27 171.881C104.5 170.963 104.73 170.046 104.96 169.206C105.266 168.059 105.649 167.066 106.109 166.225C106.492 165.384 107.028 164.62 107.641 164.009C108.254 163.397 109.02 162.939 109.939 162.633C110.859 162.327 111.931 162.175 113.234 162.175C114.077 162.175 114.919 162.251 115.762 162.404C116.605 162.557 117.294 162.862 117.907 163.245C118.52 163.627 119.056 164.162 119.439 164.849C119.669 165.614 119.823 166.454 119.823 167.524Z" fill="white"/>
<path d="M137.827 176.084L135.988 184.644H130.242L132.081 176.084L129.169 162.709H135.528L135.911 166.913C135.988 167.601 135.988 168.289 136.065 168.976C136.065 169.664 136.065 170.352 135.988 171.04C136.218 170.352 136.524 169.588 136.831 168.9C137.137 168.212 137.444 167.448 137.75 166.836L139.819 162.709H146.101L137.827 176.084Z" fill="white"/>
<path d="M111.702 45.0147V58.007L120.512 54.8735C120.512 54.8735 120.589 89.0357 120.512 90.7935C119.516 101.187 108.637 97.901 105.113 95.2262C104.04 94.3855 95.8428 88.73 95.8428 88.73C103.734 85.9023 116.145 75.8141 110.016 62.0575C102.355 48.0717 88.7944 52.6572 88.7944 52.6572L51.7903 65.5731V78.3361L57.1532 76.4255V94.1562L33.3266 71.84L8.73389 80.3996V93.1627L16.1653 90.4114V126.79L8.88711 129.388V142.763L36.7742 133.057V103.022L52.1734 117.007L91.7057 106.537C91.7057 106.537 96.9153 110.664 100.823 113.492C107.488 118.307 115.609 119.377 124.649 116.931C134.609 114.256 143.19 105.467 143.19 92.6277C143.19 88.0422 143.266 34.0858 143.266 34.0858L111.702 45.0147ZM87.7218 78.4126C85.1169 79.3297 77.3024 82.2338 77.3024 82.2338V69.9293C77.3024 69.9293 82.6653 68.0187 85.3468 67.1016C87.9516 66.1845 90.25 68.783 90.4032 71.3814C90.5565 73.5978 91.0161 76.8841 87.7218 78.4126ZM129.706 33.8566C137.137 33.8566 143.113 27.819 143.113 20.4821C143.113 13.0688 137.061 7.10767 129.706 7.10767C122.274 7.10767 116.222 13.1453 116.222 20.4821C116.298 27.819 122.274 33.8566 129.706 33.8566Z" fill="#E30613"/>
<path d="M28.8064 135.808L20.1492 127.096L20.9153 123.58L36.7742 122.816V133.057L28.8064 135.808Z" fill="#AF191D"/>
<path d="M143.189 91.7107C142.5 101.952 135.988 110.435 122.274 111.199C115.839 111.734 112.008 109.441 108.867 107.684C102.968 104.779 93.3145 96.0669 87.1854 93.7742C82.8185 92.0164 76.8427 91.3286 70.7903 92.7042C64.7378 94.0799 61.3669 96.2198 58.9153 98.1304C56.4636 100.041 52.5564 103.786 51.5604 104.779C50.6411 105.773 47.883 108.906 47.7298 108.983C47.4999 108.983 46.8104 108.142 46.4274 107.684C46.0443 107.225 45.508 106.308 45.4314 106.308C45.2015 106.384 43.7459 108.448 43.5927 109.594C43.4395 110.741 44.0524 112.346 44.129 112.728C44.129 113.11 43.6693 113.416 43.5161 113.492C43.3628 113.492 42.2136 112.04 42.0604 112.04C41.9072 112.04 41.3709 112.957 41.2177 113.645C41.0644 114.256 41.2943 115.861 41.2943 115.861C39.8386 117.084 37.387 118.383 34.629 119.147C32.8669 119.606 24.4394 120.447 24.2096 120.523C23.9798 120.676 20.0725 124.039 20.0725 124.039L20.2257 127.249L21.0685 126.484L22.4475 129.006L23.2903 127.401C23.2903 127.401 24.5161 129.006 25.129 129.771C25.4354 128.471 26.8911 125.72 29.0362 125.032C31.1048 124.268 41.754 123.962 42.0604 123.962C42.0604 124.268 41.4475 125.873 41.4475 125.949C41.4475 126.026 43.7459 128.471 43.8991 128.548C44.0524 128.624 45.2015 128.242 45.2782 128.166C45.3548 128.089 45.508 127.86 45.508 127.631C45.5846 127.631 46.3507 127.707 46.8104 127.401C45.7378 127.096 45.7378 126.408 45.9677 125.873C46.2741 125.338 47.9596 125.032 48.879 125.644C49.7983 126.255 50.258 127.172 49.7983 128.318C49.4153 129.236 48.1894 128.853 47.9596 128.777C48.0362 128.93 48.879 129.541 48.9556 129.618C48.9556 129.694 48.9556 129.923 48.9556 129.923C48.9556 129.923 49.1854 130.306 49.3386 130.306C49.4919 130.306 53.0161 128.395 53.3225 128.166C53.5524 128.013 54.3185 127.248 54.7782 126.408C54.7782 126.408 53.5524 125.644 53.629 124.191C53.7056 122.816 54.9314 121.975 56.387 122.128C57.7661 122.281 58.5322 123.504 58.1491 125.109C57.8427 126.408 51.3306 133.898 45.508 136.802C41.6774 139.018 38.1532 138.712 37.9233 138.789C37.6935 138.865 34.2459 141.769 34.2459 141.769L34.0927 144.444L34.7822 144.139L35.7782 146.966L36.4677 145.896L38.6128 148.189L39.0725 146.278L41.754 148.265C41.754 148.265 41.9072 147.272 41.9838 146.431C42.3669 146.126 46.2741 142.534 46.7338 142.228C47.1169 141.846 52.9395 138.942 58.0725 135.502C63.8951 131.605 69.5645 127.478 69.7177 126.484C68.9516 125.873 66.1935 123.274 66.2701 120.37C66.3467 117.466 69.7177 114.715 73.6249 112.957C77.5322 111.199 82.5887 111.811 86.0362 114.333C88.3346 115.938 98.2943 122.816 111.702 122.128C125.722 121.364 133.996 116.778 138.899 108.371C143.649 99.5061 143.266 93.2392 143.189 91.7107Z" fill="black"/>
<path d="M44.1292 120.905L45.0485 116.778L46.3509 117.313L44.6654 120.676L44.1292 120.905Z" fill="white"/>
</g>
</g>
<defs>
<clipPath id="clip0_4602_110518">
<rect width="152" height="189" fill="white"/>
</clipPath>
<clipPath id="clip1_4602_110518">
<rect width="152" height="189" fill="white"/>
</clipPath>
</defs>
</svg>
