<svg fill="none" xmlns="http://www.w3.org/2000/svg" viewBox="0 0 97 123"><g clip-path="url(#a)"><g clip-path="url(#b)"><path fill-rule="evenodd" clip-rule="evenodd" d="m1.152 44.992 2.074-.673v-2.587l1.701-.57C6.682 40.593 7.8 39.456 7.8 37.54c0-1.811-1.383-2.018-2.872-1.5L1.152 37.28v7.711Zm2.074-6.78 1.382-.465c.638-.207 1.117-.103 1.117.621 0 .725-.479 1.087-1.117 1.346l-1.382.465v-1.966ZM20.347 33.141l.903 2.38-1.807.622.904-3.002Zm-3.988 6.883 2.127-.724.478-1.553 2.765-.931.479 1.19 2.126-.725-2.977-6.727-2.074.724-2.924 8.746ZM38.265 30.968l-2.552.828c.691-1.604.85-2.898.85-4.295v-.26l1.702-.568v4.295Zm2.977 2.587v-3.622l-.903.31v-5.95l-5.69 1.914v1.397c0 1.708-.266 3.26-1.063 4.968l-.797.207v3.622l1.967-.672v-1.863l4.572-1.553v1.863l1.914-.62ZM56.555 18.91l-2.286.777-2.552 5.9v-5.072l-2.02.672v7.711l2.339-.776 2.499-5.744v4.916l2.02-.673v-7.71ZM65.01 19.738c0 2.226 1.435 3.52 3.88 2.691a5.625 5.625 0 0 0 3.882-5.33c0-2.225-1.436-3.519-3.882-2.69-2.445.879-3.88 3.104-3.88 5.33Zm2.073-.672c0-1.139.532-2.433 1.86-2.898 1.33-.466 1.862.517 1.862 1.656 0 1.138-.532 2.432-1.861 2.897-1.33.466-1.861-.517-1.861-1.655Z" fill="#000"/><path d="M73.835 26.466v9.004l6.274-2.173s.054 23.597 0 24.84c-.69 7.192-8.4 4.916-10.9 3.053-.797-.57-6.54-4.503-6.54-4.503 5.637-1.914 14.41-8.952 10.05-18.422-5.477-9.73-15.047-6.52-15.047-6.52l-26.266 8.9v8.797l3.775-1.293v12.264L18.273 44.992l-17.44 5.9v8.848l5.264-1.863v25.099L.94 84.787v9.263l19.832-6.727V66.57l10.9 9.678 27.967-7.245s3.722 2.846 6.487 4.812c4.732 3.364 10.474 4.088 16.908 2.38 7.071-1.862 13.133-7.917 13.133-16.818 0-3.156.053-40.468.053-40.468l-22.385 7.556Zm-17.014 23.08c-1.86.62-7.337 2.64-7.337 2.64v-8.54s3.775-1.293 5.689-1.966c1.86-.621 3.509 1.19 3.562 2.95.107 1.552.426 3.83-1.914 4.916Zm29.775-30.843c5.264 0 9.517-4.14 9.517-9.263S91.86.177 86.597.177c-5.264 0-9.517 4.14-9.517 9.263s4.253 9.263 9.517 9.263Z" fill="#E30613"/><path d="m15.083 89.237-6.168-6.054.585-2.432 11.219-.518v7.09l-5.636 1.915Z" fill="#AF191D"/><path d="M96.114 58.706c-.479 7.09-5.105 12.937-14.835 13.506-4.572.362-7.23-1.242-9.517-2.432-4.2-2.018-11.006-8.021-15.366-9.626-3.084-1.241-7.338-1.707-11.644-.776-4.307.932-6.647 2.432-8.401 3.726-1.755 1.294-4.52 3.933-5.21 4.606-.692.724-2.606 2.846-2.712 2.898-.16 0-.692-.57-.958-.88-.265-.31-.638-.931-.744-.983-.16.052-1.223 1.5-1.276 2.277-.106.776.372 1.915.372 2.173 0 .26-.319.518-.425.518-.107 0-.904-.983-1.01-.983-.107 0-.479.672-.585 1.086-.107.414.053 1.553.053 1.553-1.01.828-2.765 1.76-4.732 2.277-1.223.31-7.178.88-7.39.983-.16.103-2.925 2.38-2.925 2.38l.106 2.226.638-.518 1.01 1.708.585-1.087s.851 1.087 1.276 1.656c.213-.931 1.223-2.794 2.765-3.312 1.489-.517 8.986-.724 9.199-.724 0 .207-.426 1.293-.426 1.345 0 .052 1.648 1.76 1.755 1.811.106.052.904-.207.957-.258a.585.585 0 0 0 .16-.362c.053 0 .637.051.903-.156-.744-.207-.797-.672-.585-1.087.213-.413 1.383-.569 2.02-.155.639.414 1.011 1.087.692 1.811-.266.621-1.117.363-1.33.31.054.104.692.518.692.57v.207s.16.259.319.259c.106 0 2.605-1.346 2.818-1.449.16-.103.691-.621 1.01-1.242 0 0-.85-.57-.797-1.552.053-.984.957-1.553 1.967-1.398 1.01.104 1.542.984 1.223 2.07-.213.88-4.839 6.055-8.933 8.073-2.711 1.553-5.21 1.346-5.37 1.397-.16.052-2.605 2.07-2.605 2.07l-.106 1.863.478-.207.691 1.967.532-.725 1.542 1.553.319-1.294 1.86 1.397s.107-.672.16-1.293c.266-.208 3.084-2.691 3.35-2.898.266-.26 4.413-2.277 8.029-4.658 4.147-2.69 8.135-5.537 8.241-6.262-.532-.414-2.499-2.225-2.446-4.243.053-2.018 2.446-3.933 5.21-5.123 2.766-1.19 6.381-.776 8.774.983 1.648 1.139 8.72 5.848 18.184 5.382 9.943-.517 15.791-3.674 19.247-9.522 3.51-6.003 3.244-10.35 3.19-11.436Z" fill="#000"/><path d="m25.93 78.94.638-2.847.957.31-1.17 2.33-.425.206Z" fill="#fff"/><path fill-rule="evenodd" clip-rule="evenodd" d="M96.167 104.038H.833v18.785h95.334v-18.785Z" fill="#000"/><path d="M14.87 109.472h-4.572l-.532 2.432h4.254l-.585 2.691H9.18l-.638 2.794h4.785l-.585 2.743H4.396l2.924-13.455h8.135l-.585 2.795ZM28.375 120.132h-3.828l-.585-4.916c-.053-.673-.16-1.346-.16-2.018l-.159-2.019c-.053.777-.16 1.605-.266 2.381-.106.776-.265 1.552-.425 2.38l-.85 4.244h-3.35l2.977-13.455h3.881l.532 5.123.16 2.018c.053.673.053 1.346.053 2.019a47.57 47.57 0 0 1 .319-2.536c.106-.673.213-1.19.266-1.501l1.01-5.071h3.403l-2.978 13.351ZM45.23 109.472h-4.572l-.532 2.432h4.306l-.584 2.691H39.54l-.585 2.794h4.785l-.638 2.743h-8.347l2.924-13.455h8.188l-.638 2.795ZM60.702 109.627c0 1.138-.319 2.07-.903 2.743-.585.672-1.436 1.035-2.553 1.086.32.052.585.156.851.259.266.104.479.259.638.414.16.155.32.362.372.621.107.259.16.518.16.88 0 .414-.053.776-.107 1.19-.053.414-.159.776-.212 1.19a8.295 8.295 0 0 1-.16.932c-.053.207-.053.414-.053.569 0 .31.107.517.32.569v.155h-3.776c-.053-.155-.106-.31-.106-.362v-.362c0-.155 0-.311.053-.569.053-.207.106-.466.16-.828.106-.466.159-.88.212-1.294.053-.362.107-.673.107-.88 0-.465-.107-.776-.32-.931-.212-.155-.531-.259-.957-.259h-.478l-1.223 5.485h-3.615l2.977-13.454h4.147c.585 0 1.117 0 1.649.051.531.052 1.01.156 1.435.363.425.207.744.465 1.01.879.213.311.372.828.372 1.553Zm-3.721.673c0-.414-.107-.725-.373-.932-.212-.207-.638-.259-1.17-.259h-.372l-.69 3.261h.425c.319 0 .584 0 .797-.052.213-.052.372-.104.532-.207.266-.155.478-.362.638-.725.16-.31.213-.672.213-1.086ZM76.122 109.627v.569c0 .104 0 .207-.053.259 0 .103-.054.207-.054.362H72.56c.053-.31.107-.517.107-.673 0-.155.053-.31.053-.465 0-.621-.266-.932-.85-.932-.213 0-.426.052-.586.155-.16.104-.319.311-.425.57-.106.258-.213.569-.372.983-.107.414-.213.88-.372 1.449-.054.259-.107.466-.16.673-.053.207-.106.362-.16.569-.053.207-.106.414-.159.672-.053.259-.106.57-.213.88a25.88 25.88 0 0 0-.319 1.604c-.053.363-.106.621-.106.828 0 .673.319 1.035.904 1.035.266 0 .532-.051.691-.207.16-.155.32-.31.425-.569.107-.207.213-.466.266-.724.053-.259.107-.466.16-.673.053-.155.053-.311.106-.414 0-.104.053-.259.106-.414h-1.17l.48-2.277h4.678l-1.595 7.245h-2.446V119.097c-.319.517-.744.88-1.223 1.087-.478.207-1.01.31-1.648.31-2.233 0-3.35-1.035-3.35-3.157 0-.517.054-.983.107-1.5.106-.518.16-.984.266-1.501.16-.725.319-1.345.425-1.915.16-.569.266-1.138.425-1.656.213-.672.426-1.293.692-1.863.265-.517.584-.983.957-1.345.372-.362.85-.621 1.435-.828.585-.207 1.276-.259 2.074-.259a8.37 8.37 0 0 1 1.595.155c.532.104.957.259 1.33.518.371.259.69.569.956.983.372.362.479.88.479 1.501ZM87.447 114.905l-1.17 5.227h-3.562l1.17-5.227-1.861-8.228h3.987l.266 2.588c.053.414.053.879.053 1.293 0 .414 0 .88-.053 1.294.16-.466.32-.88.532-1.345.16-.414.372-.88.585-1.294l1.276-2.536h3.934l-5.157 8.228Z" fill="#fff"/></g></g><defs><clipPath id="a"><path fill="#fff" transform="translate(.833 .177)" d="M0 0h95.333v122.646H0z"/></clipPath><clipPath id="b"><path fill="#fff" transform="translate(.833 .177)" d="M0 0h95.333v122.646H0z"/></clipPath></defs></svg>