<svg fill="none" xmlns="http://www.w3.org/2000/svg" viewBox="0 0 103 123"><g clip-path="url(#a)"><g clip-path="url(#b)"><path fill-rule="evenodd" clip-rule="evenodd" d="M102.144 100.109H1.006V.177h101.138v99.932Z" fill="#fff"/><path fill-rule="evenodd" clip-rule="evenodd" d="m6.93 46.795 1.94-.644v-2.43l1.582-.546c1.634-.545 2.706-1.587 2.706-3.372 0-1.687-1.327-1.885-2.706-1.439l-3.522 1.19v7.241Zm1.94-6.348 1.327-.446c.613-.198 1.021-.1 1.021.595 0 .645-.408 1.042-1.02 1.24l-1.328.446v-1.835ZM25.002 35.686l.868 2.232-1.684.546.816-2.778Zm-3.727 6.448 1.992-.645.459-1.438 2.604-.893.46 1.14 2.041-.694-2.756-6.298-1.992.645-2.808 8.183ZM41.9 33.603l-2.399.794c.664-1.538.817-2.728.817-4.017v-.248l1.583-.546v4.017Zm2.758 2.48v-3.372l-.868.297v-5.653l-5.36 1.785v1.29c0 1.586-.256 3.074-.97 4.661l-.767.248v3.373l1.838-.596v-1.735l4.289-1.438v1.785l1.838-.645ZM59.056 22.296l-2.144.744-2.4 5.554v-4.76l-1.889.644v7.24l2.195-.743 2.349-5.406v4.612l1.889-.644v-7.241ZM67.022 23.14c0 2.082 1.327 3.322 3.675 2.528 2.349-.793 3.676-2.926 3.676-5.009 0-2.082-1.327-3.322-3.676-2.529-2.348.794-3.675 2.877-3.675 5.01Zm1.94-.695c0-1.091.459-2.282 1.735-2.728 1.226-.397 1.736.496 1.736 1.587s-.46 2.282-1.736 2.728c-1.225.397-1.736-.496-1.736-1.587Z" fill="#000"/><path fill-rule="evenodd" clip-rule="evenodd" d="M101.941 102.936H.854v19.887H101.94v-19.887Z" fill="#fff"/><path d="M15.76 108.689h-4.85l-.561 2.578h4.493l-.613 2.877H9.736l-.663 2.926h5.054l-.664 2.926H4.631l3.114-14.233h8.628l-.612 2.926ZM30.055 119.996h-4.084l-.613-5.207a31.534 31.534 0 0 1-.204-2.182c-.051-.744-.102-1.439-.153-2.183a21.398 21.398 0 0 1-.306 2.53l-.46 2.529-.919 4.513h-3.574l3.166-14.233h4.135l.562 5.405c.05.695.153 1.389.204 2.133.05.694.102 1.388.102 2.132.102-1.091.255-1.983.357-2.678.102-.694.204-1.24.255-1.587l1.073-5.356h3.573l-3.114 14.184ZM47.975 108.689h-4.85l-.561 2.578h4.493l-.613 2.877H41.95l-.664 2.926h5.055l-.664 2.926h-8.832l3.114-14.233h8.628l-.613 2.926ZM64.314 108.887c0 1.24-.306 2.182-.97 2.926-.613.744-1.532 1.091-2.706 1.141.306.049.613.148.868.248.255.099.46.248.664.446.204.198.306.397.408.645.102.248.153.545.153.892 0 .447-.05.844-.102 1.24-.051.397-.153.843-.204 1.24-.051.446-.102.744-.153.992-.051.248-.051.446-.051.595 0 .347.102.546.306.595v.149h-4.033c-.051-.149-.102-.298-.102-.397v-.347c0-.149 0-.347.05-.595.052-.248.103-.496.154-.893.102-.496.153-.942.255-1.339.051-.396.102-.694.102-.942 0-.496-.102-.794-.306-.992-.204-.198-.562-.297-1.021-.297h-.51l-1.277 5.802h-3.83l3.166-14.233h4.39c.614 0 1.175 0 1.737.049.561.05 1.072.149 1.531.397.46.198.817.496 1.072.942.307.397.409.992.409 1.736Zm-3.88.744c0-.446-.102-.744-.358-.942-.255-.199-.663-.298-1.276-.298h-.408l-.766 3.422h.408c.358 0 .613 0 .817-.05.204-.049.409-.099.562-.198.255-.149.51-.397.663-.744.256-.397.358-.793.358-1.19ZM80.701 108.887v.645c0 .099 0 .198-.051.297 0 .099-.051.248-.051.397h-3.676c.051-.298.102-.546.153-.744 0-.198.051-.347.051-.496 0-.645-.306-.992-.919-.992-.255 0-.46.05-.612.199a3.078 3.078 0 0 0-.46.595c-.153.248-.255.595-.357 1.041-.102.397-.256.943-.358 1.488-.05.248-.102.496-.153.694-.05.199-.102.397-.153.596-.051.198-.102.446-.153.694-.051.248-.102.595-.204.942-.154.744-.256 1.29-.307 1.686-.05.397-.102.645-.102.893 0 .744.306 1.091.97 1.091.306 0 .562-.099.766-.248a1.36 1.36 0 0 0 .46-.595c.102-.248.204-.496.255-.744.05-.248.153-.496.204-.744.051-.198.051-.347.102-.446.051-.099.051-.248.102-.447h-1.327l.51-2.38h4.953l-1.685 7.637h-2.604v-1.14c-.357.545-.817.892-1.327 1.14a4.67 4.67 0 0 1-1.736.348c-2.349 0-3.574-1.141-3.574-3.373 0-.545.051-1.041.153-1.587.102-.545.204-1.041.306-1.587.154-.744.307-1.438.46-2.033.153-.595.306-1.19.46-1.736.204-.744.459-1.389.765-1.934a4.937 4.937 0 0 1 1.021-1.438c.409-.397.92-.695 1.532-.893.613-.198 1.327-.298 2.195-.298.562 0 1.123.05 1.685.149a4.055 4.055 0 0 1 1.43.546c.408.248.765.595 1.02 1.041.154.496.256 1.042.256 1.736ZM92.699 114.442l-1.225 5.554h-3.83l1.226-5.554-1.94-8.679h4.237l.255 2.727c.052.447.052.893.103 1.339 0 .447 0 .893-.052 1.339.154-.446.358-.942.562-1.388.204-.447.409-.943.613-1.339l1.378-2.678h4.187l-5.514 8.679Z" fill="#000"/><path d="M75.29 29.388v8.431l5.872-2.033s.051 22.168 0 23.309c-.664 6.745-7.913 4.612-10.262 2.876-.715-.545-6.178-4.215-6.178-4.215 5.26-1.835 13.53-8.382 9.446-17.309-5.106-9.075-14.143-6.1-14.143-6.1L35.367 42.73v8.282l3.574-1.24v11.506L23.062 46.795 6.674 52.35v8.282l4.952-1.785v23.607l-4.85 1.686v8.679L25.36 86.52V67.03l10.262 9.076 26.344-6.795s3.471 2.678 6.075 4.513c4.442 3.125 9.853 3.819 15.878 2.232 6.637-1.736 12.355-7.44 12.355-15.771 0-2.976.051-37.989.051-37.989l-21.034 7.092ZM59.31 51.06c-1.735.596-6.943 2.48-6.943 2.48v-7.984s3.574-1.24 5.361-1.835c1.736-.595 3.268 1.09 3.37 2.777.102 1.438.408 3.57-1.787 4.563Zm27.978-28.913c4.953 0 8.935-3.918 8.935-8.679 0-4.81-4.033-8.679-8.934-8.679-4.953 0-8.986 3.918-8.986 8.68.051 4.76 4.033 8.678 8.986 8.678Z" fill="#E30613"/><path d="m20.05 88.306-5.769-5.654.51-2.281 10.569-.496v6.645l-5.31 1.786Z" fill="#AF191D"/><path d="M96.275 59.69c-.46 6.645-4.8 12.15-13.938 12.646-4.289.347-6.841-1.14-8.935-2.28-3.93-1.885-10.364-7.54-14.448-9.027-2.91-1.14-6.892-1.587-10.926-.694-4.033.892-6.28 2.281-7.913 3.52-1.634 1.24-4.238 3.67-4.901 4.316-.613.644-2.45 2.678-2.553 2.727-.153 0-.613-.545-.868-.843-.255-.298-.613-.893-.664-.893-.153.05-1.123 1.389-1.225 2.133-.102.744.306 1.785.358 2.033 0 .248-.307.447-.409.496-.102 0-.868-.942-.97-.942-.102 0-.46.595-.562 1.041-.102.397.051 1.439.051 1.439-.97.793-2.603 1.636-4.441 2.132-1.175.298-6.79.843-6.944.893-.153.099-2.756 2.281-2.756 2.281l.102 2.083.561-.496.92 1.637.56-1.042s.818 1.042 1.226 1.538c.204-.843 1.174-2.629 2.604-3.075 1.378-.496 8.475-.694 8.679-.694 0 .198-.408 1.24-.408 1.289 0 .05 1.531 1.637 1.633 1.686.102.05.868-.198.92-.248A.559.559 0 0 0 31.18 83c.052 0 .562.05.868-.149-.714-.198-.714-.644-.561-.992.204-.347 1.327-.545 1.94-.148.612.396.919.992.612 1.735-.255.596-1.072.348-1.225.298.051.1.613.496.664.546v.198s.153.248.255.248c.102 0 2.45-1.24 2.655-1.389.153-.099.664-.595.97-1.14 0 0-.817-.496-.766-1.439.051-.892.868-1.438 1.838-1.339.92.1 1.43.893 1.174 1.934-.204.844-4.543 5.704-8.424 7.588-2.552 1.439-4.9 1.24-5.054 1.29-.153.05-2.45 1.934-2.45 1.934l-.103 1.736.46-.199.664 1.835.46-.694 1.429 1.488.306-1.24 1.787 1.29s.102-.645.153-1.19c.255-.2 2.859-2.53 3.165-2.728.256-.248 4.136-2.133 7.556-4.365 3.88-2.529 7.659-5.207 7.76-5.852-.51-.397-2.348-2.083-2.297-3.967.051-1.885 2.298-3.67 4.901-4.811 2.604-1.14 5.974-.744 8.271.893 1.532 1.041 8.169 5.505 17.103 5.058 9.343-.496 14.857-3.471 18.125-8.927 3.165-5.752 2.91-9.82 2.859-10.811Z" fill="#000"/><path d="m30.262 78.635.612-2.678.868.347-1.123 2.182-.357.149Z" fill="#fff"/></g></g><defs><clipPath id="a"><path fill="#fff" transform="translate(.854 .177)" d="M0 0h101.292v122.646H0z"/></clipPath><clipPath id="b"><path fill="#fff" transform="translate(.854 .177)" d="M0 0h101.292v122.646H0z"/></clipPath></defs></svg>