<svg viewBox="0 0 18 20" xmlns="http://www.w3.org/2000/svg"><path d="M9 .833A6.424 6.424 0 0 0 2.583 7.25c0 1.523.547 3.002 1.541 4.165.112.13 2.752 3.201 3.639 4.047a1.79 1.79 0 0 0 2.475 0c1.03-.982 3.534-3.924 3.639-4.048a6.417 6.417 0 0 0 1.54-4.164A6.424 6.424 0 0 0 9 .833Zm0 4.125a2.292 2.292 0 1 1 0 4.584 2.292 2.292 0 0 1 0-4.584Zm-5.146 7.536C1.77 13.096.292 14.104.292 15.5c0 2.407 4.38 3.667 8.708 3.667s8.708-1.26 8.708-3.667c0-1.396-1.477-2.403-3.56-3.005-.265.3-.627.71-1.027 1.155 2.03.478 3.212 1.25 3.212 1.85 0 .934-2.856 2.292-7.333 2.292-4.476 0-7.333-1.358-7.333-2.292 0-.6 1.185-1.374 3.217-1.851-.397-.443-.763-.853-1.03-1.155Z" fill="#DB1F2A"/></svg>