<svg width="150" height="150" fill="none" xmlns="http://www.w3.org/2000/svg"><path fill="#FBFBFB" d="M0 0h150v150H0z"/><path d="M100.002 52.289v9.004l6.274-2.173s.053 23.597 0 24.84c-.691 7.192-8.4 4.915-10.9 3.052-.797-.569-6.54-4.502-6.54-4.502 5.636-1.915 14.409-8.952 10.05-18.423-5.477-9.728-15.048-6.52-15.048-6.52l-26.265 8.9v8.798l3.775-1.293v12.264L44.44 70.815 27 76.715v8.848l5.264-1.863V108.8l-5.158 1.811v9.263l19.833-6.727V92.394l10.9 9.677 27.967-7.245s3.722 2.847 6.486 4.813c4.733 3.364 10.475 4.088 16.908 2.381 7.072-1.863 13.133-7.918 13.133-16.819 0-3.157.053-40.468.053-40.468l-22.384 7.556Zm-17.014 23.08c-1.861.62-7.338 2.639-7.338 2.639v-8.539s3.775-1.293 5.69-1.966c1.86-.621 3.509 1.19 3.562 2.95.106 1.552.425 3.829-1.914 4.916Zm29.775-30.843c5.264 0 9.517-4.14 9.517-9.263S118.027 26 112.763 26c-5.264 0-9.518 4.14-9.518 9.263s4.254 9.263 9.518 9.263Z" fill="#E30613"/><path d="m41.25 115.061-6.168-6.055.585-2.432 11.218-.518v7.09l-5.636 1.915Z" fill="#AF191D"/><path d="M122.28 84.528c-.479 7.09-5.104 12.938-14.834 13.507-4.573.362-7.231-1.242-9.518-2.432-4.2-2.019-11.006-8.021-15.366-9.626-3.084-1.242-7.337-1.707-11.644-.776s-6.646 2.432-8.4 3.726c-1.755 1.294-4.52 3.933-5.211 4.606-.692.724-2.606 2.846-2.712 2.898-.16 0-.691-.57-.957-.88-.266-.31-.638-.932-.744-.983-.16.051-1.223 1.5-1.276 2.277-.107.776.372 1.914.372 2.173 0 .259-.32.518-.426.518-.106 0-.904-.984-1.01-.984-.106 0-.479.673-.585 1.087-.106.414.053 1.553.053 1.553-1.01.828-2.764 1.759-4.732 2.277-1.223.31-7.178.879-7.39.983-.16.103-2.925 2.38-2.925 2.38l.107 2.225.638-.517 1.01 1.708.585-1.087s.85 1.087 1.276 1.656c.213-.932 1.223-2.795 2.765-3.312 1.488-.518 8.985-.724 9.198-.724 0 .206-.425 1.293-.425 1.345 0 .052 1.648 1.759 1.754 1.811.107.052.904-.207.957-.259a.583.583 0 0 0 .16-.362c.053 0 .638.052.904-.155-.745-.207-.798-.673-.585-1.087.213-.414 1.382-.569 2.02-.155.638.414 1.01 1.087.692 1.811-.266.621-1.117.362-1.33.311.053.103.691.517.691.569v.207s.16.259.32.259c.106 0 2.605-1.346 2.817-1.449.16-.104.692-.621 1.01-1.242 0 0-.85-.57-.797-1.553.053-.983.957-1.552 1.968-1.397 1.01.104 1.541.983 1.222 2.07-.212.88-4.838 6.055-8.932 8.073-2.712 1.552-5.21 1.345-5.37 1.397-.16.052-2.606 2.07-2.606 2.07l-.106 1.863.479-.207.69 1.967.532-.725 1.542 1.553.32-1.294 1.86 1.397s.107-.673.16-1.294c.266-.207 3.084-2.691 3.35-2.898.265-.258 4.413-2.277 8.028-4.657 4.148-2.691 8.135-5.537 8.242-6.262-.532-.414-2.5-2.225-2.446-4.243.053-2.018 2.446-3.933 5.21-5.123 2.765-1.19 6.38-.777 8.773.983 1.649 1.138 8.72 5.848 18.184 5.382 9.943-.518 15.792-3.674 19.248-9.522 3.509-6.003 3.243-10.35 3.19-11.437Z" fill="#000"/></svg>