<svg fill="none" xmlns="http://www.w3.org/2000/svg" viewBox="0 0 638 24"><g clip-path="url(#a)"><rect y="2.5" width="2" height="19" rx="1" fill="#DB1F2A"/><rect x="6" y="10" width="2" height="4" rx="1" fill="#DB1F2A"/><rect x="12" y="8" width="2" height="8" rx="1" fill="#DB1F2A"/><rect x="18" y="6.5" width="2" height="11" rx="1" fill="#DB1F2A"/><rect x="24" y="2.5" width="2" height="19" rx="1" fill="#DB1F2A"/><rect x="30" y="10" width="2" height="4" rx="1" fill="#DB1F2A"/><rect x="36" y="9.5" width="2" height="5" rx="1" fill="#DB1F2A"/><rect x="42" y="8.5" width="2" height="7" rx="1" fill="#DB1F2A"/><rect x="48" y="3.5" width="2" height="17" rx="1" fill="#DB1F2A"/><rect x="54" y="1.5" width="2" height="21" rx="1" fill="#DB1F2A"/><rect x="60" y="6" width="2" height="12" rx="1" fill="#DB1F2A"/><rect x="66" y="3" width="2" height="18" rx="1" fill="#DB1F2A"/><rect x="72" y="4" width="2" height="16" rx="1" fill="#DB1F2A"/><rect x="78" y="8.5" width="2" height="7" rx="1" fill="#DB1F2A"/><rect x="84" y="9.5" width="2" height="5" rx="1" fill="#DB1F2A"/><rect x="90" y="5.5" width="2" height="13" rx="1" fill="#DB1F2A"/><rect x="96" y="4" width="2" height="16" rx="1" fill="#DB1F2A"/><rect x="102" y="3.5" width="2" height="17" rx="1" fill="#DB1F2A"/><rect x="108" y="9.5" width="2" height="5" rx="1" fill="#DB1F2A"/><rect x="114" y="1.5" width="2" height="21" rx="1" fill="#DB1F2A"/><rect x="120" y="2" width="2" height="20" rx="1" fill="#DB1F2A"/><rect x="126" y="6.5" width="2" height="11" rx="1" fill="#DB1F2A"/><rect x="132" y="6" width="2" height="12" rx="1" fill="#DB1F2A"/><rect x="138" y="3.5" width="2" height="17" rx="1" fill="#DB1F2A"/><rect x="144" y="7.5" width="2" height="9" rx="1" fill="#DB1F2A"/><rect x="150" y="8.5" width="2" height="7" rx="1" fill="#DB1F2A"/><rect x="156" y="8.5" width="2" height="7" rx="1" fill="#DB1F2A"/><rect x="162" y="8" width="2" height="8" rx="1" fill="#DB1F2A"/><rect x="168" y="7" width="2" height="10" rx="1" fill="#DB1F2A"/><rect x="174" y="4" width="2" height="16" rx="1" fill="#DB1F2A"/><rect x="180" y="6" width="2" height="12" rx="1" fill="#DB1F2A"/><rect x="186" y="6.5" width="2" height="11" rx="1" fill="#DB1F2A"/><rect x="192" y="6" width="2" height="12" rx="1" fill="#DB1F2A"/><rect x="198" y="9.5" width="2" height="5" rx="1" fill="#DB1F2A"/><rect x="204" y="10" width="2" height="4" rx="1" fill="#DB1F2A"/><rect x="210" y="1" width="2" height="22" rx="1" fill="#DB1F2A"/><rect x="216" width="2" height="24" rx="1" fill="#DB1F2A"/><rect x="222" y="1" width="2" height="22" rx="1" fill="#DB1F2A"/><rect x="228" y="8.5" width="2" height="7" rx="1" fill="#DB1F2A"/><rect x="234" y="8.5" width="2" height="7" rx="1" fill="#DB1F2A"/><rect x="240" y="9.5" width="2" height="5" rx="1" fill="#DB1F2A"/><rect x="246" y="8.5" width="2" height="7" rx="1" fill="#DB1F2A"/><rect x="252" y="8.5" width="2" height="7" rx="1" fill="#DB1F2A"/><rect x="258" y="8" width="2" height="8" rx="1" fill="#DB1F2A"/><rect x="264" y=".5" width="2" height="23" rx="1" fill="#DB1F2A"/><rect x="270" y="7" width="2" height="10" rx="1" fill="#DB1F2A"/><rect x="276" y="6" width="2" height="12" rx="1" fill="#DB1F2A"/><rect x="282" y="4" width="2" height="16" rx="1" fill="#DB1F2A"/><rect x="288" y="8.5" width="2" height="7" rx="1" fill="#DB1F2A"/><rect x="294" y="8.5" width="2" height="7" rx="1" fill="#DB1F2A"/><rect x="300" y="6" width="2" height="12" rx="1" fill="#DB1F2A"/><rect x="306" y="8.5" width="2" height="7" rx="1" fill="#DB1F2A"/><rect x="312" y="9.5" width="2" height="5" rx="1" fill="#DB1F2A"/><rect x="318" y="6.5" width="2" height="11" rx="1" fill="#DB1F2A"/><rect x="324" y="8" width="2" height="8" rx="1" fill="#DB1F2A"/><rect x="330" y="7.5" width="2" height="9" rx="1" fill="#DB1F2A"/><rect x="336" y="6" width="2" height="12" rx="1" fill="#DB1F2A"/><rect x="342" y="7" width="2" height="10" rx="1" fill="#DB1F2A"/><rect x="348" y="7.5" width="2" height="9" rx="1" fill="#DB1F2A"/><rect x="354" y="9.5" width="2" height="5" rx="1" fill="#DB1F2A"/><rect x="360" y="4" width="2" height="16" rx="1" fill="#DB1F2A"/><rect x="366" y="7.5" width="2" height="9" rx="1" fill="#DB1F2A"/><rect x="372" y="10" width="2" height="4" rx="1" fill="#DB1F2A"/><rect x="378" y="6" width="2" height="12" rx="1" fill="#DB1F2A"/><rect x="384" y="7.5" width="2" height="9" rx="1" fill="#DB1F2A"/><rect x="390" y="1" width="2" height="22" rx="1" fill="#DB1F2A"/><rect x="396" y="6.5" width="2" height="11" rx="1" fill="#DB1F2A"/><rect x="402" y="1" width="2" height="22" rx="1" fill="#DB1F2A"/><rect x="408" y="1" width="2" height="22" rx="1" fill="#DB1F2A"/><rect x="414" y="6" width="2" height="12" rx="1" fill="#DB1F2A"/><rect x="420" width="2" height="24" rx="1" fill="#DB1F2A"/><rect x="426" width="2" height="24" rx="1" fill="#DB1F2A"/><rect x="432" y="9.5" width="2" height="5" rx="1" fill="#DB1F2A"/><rect x="438" y=".5" width="2" height="23" rx="1" fill="#DB1F2A"/><rect x="444" y="9" width="2" height="6" rx="1" fill="#DB1F2A"/><rect x="450" y="10" width="2" height="4" rx="1" fill="#DB1F2A"/><rect x="456" y="10" width="2" height="4" rx="1" fill="#DB1F2A"/><rect x="462" y="7" width="2" height="10" rx="1" fill="#DB1F2A"/><rect x="468" y="1" width="2" height="22" rx="1" fill="#DB1F2A"/><rect x="474" y="8" width="2" height="8" rx="1" fill="#DB1F2A"/><rect x="480" y="8.5" width="2" height="7" rx="1" fill="#DB1F2A"/><rect x="486" y=".5" width="2" height="23" rx="1" fill="#DB1F2A"/><rect x="492" y=".5" width="2" height="23" rx="1" fill="#DB1F2A"/><rect x="498" width="2" height="24" rx="1" fill="#DB1F2A"/><rect x="504" y="5.5" width="2" height="13" rx="1" fill="#DB1F2A"/><rect x="510" y="4" width="2" height="16" rx="1" fill="#DB1F2A"/><rect x="516" y="1.5" width="2" height="21" rx="1" fill="#DB1F2A"/><rect x="522" y="9" width="2" height="6" rx="1" fill="#DB1F2A"/><rect x="528" y="7" width="2" height="10" rx="1" fill="#DB1F2A"/><rect x="534" y="7.5" width="2" height="9" rx="1" fill="#DB1F2A"/><rect x="540" y="2.5" width="2" height="19" rx="1" fill="#DB1F2A"/><rect x="546" y="4.5" width="2" height="15" rx="1" fill="#DB1F2A"/><rect x="552" y="9" width="2" height="6" rx="1" fill="#DB1F2A"/><rect x="558" y="9" width="2" height="6" rx="1" fill="#DB1F2A"/><rect x="564" y="3" width="2" height="18" rx="1" fill="#DB1F2A"/><rect x="570" y="3" width="2" height="18" rx="1" fill="#DB1F2A"/><rect x="576" y="1" width="2" height="22" rx="1" fill="#DB1F2A"/><rect x="582" y="1" width="2" height="22" rx="1" fill="#DB1F2A"/><rect x="588" y="5.5" width="2" height="13" rx="1" fill="#DB1F2A"/><rect x="594" y="5.5" width="2" height="13" rx="1" fill="#DB1F2A"/><rect x="600" y="2" width="2" height="20" rx="1" fill="#DB1F2A"/><rect x="606" y="2" width="2" height="20" rx="1" fill="#DB1F2A"/><rect x="612" width="2" height="24" rx="1" fill="#DB1F2A"/><rect x="618" width="2" height="24" rx="1" fill="#DB1F2A"/><rect x="624" y="9" width="2" height="6" rx="1" fill="#DB1F2A"/><rect x="630" y="9" width="2" height="6" rx="1" fill="#DB1F2A"/><rect x="636" y="7" width="2" height="10" rx="1" fill="#DB1F2A"/></g><defs><clipPath id="a"><path fill="#fff" d="M0 0h638v24H0z"/></clipPath></defs></svg>