<?xml version="1.0" encoding="UTF-8"?>
<!DOCTYPE svg PUBLIC "-//W3C//DTD SVG 1.1//EN" "http://www.w3.org/Graphics/SVG/1.1/DTD/svg11.dtd"><svg xmlns="http://www.w3.org/2000/svg" xmlns:xlink="http://www.w3.org/1999/xlink"><symbol id="tiktok" viewBox="0 0 32 32"><path d="M22.883 11.063a4.499 4.499 0 0 1-.386-.217 5.391 5.391 0 0 1-.992-.816c-.74-.82-1.016-1.652-1.117-2.234h.004c-.085-.483-.05-.796-.045-.796h-3.369v12.618c0 .17 0 .337-.007.502l-.003.062c0 .009 0 .018-.002.028v.007c-.036.453-.186.89-.436 1.274a2.823 2.823 0 0 1-1.003.925 2.882 2.882 0 0 1-1.394.356c-1.57 0-2.842-1.24-2.842-2.77 0-1.531 1.272-2.771 2.842-2.771.297 0 .592.045.875.134l.004-3.322a6.451 6.451 0 0 0-2.559.194c-.83.235-1.6.634-2.263 1.172a6.447 6.447 0 0 0-1.442 1.723c-.142.237-.679 1.192-.744 2.74-.04.88.232 1.79.362 2.167v.008c.081.221.398.978.914 1.616.416.511.908.96 1.46 1.333v-.008l.008.008C12.378 26.07 14.187 26 14.187 26c.313-.012 1.361 0 2.552-.547 1.32-.606 2.072-1.508 2.072-1.508.48-.54.862-1.155 1.13-1.818a6.618 6.618 0 0 0 .406-2.08v-6.694c.041.024.585.373.585.373s.784.487 2.008.804c.877.225 2.06.273 2.06.273v-3.24c-.414.044-1.256-.083-2.117-.499Z" fill="currentColor"/></symbol><symbol id="vk" viewBox="0 0 32 32"><path d="M16.893 23C10.06 23 6.163 18.12 6 10h3.423c.112 5.96 2.636 8.485 4.634 9.005V10h3.223v5.14c1.974-.221 4.048-2.563 4.747-5.14h3.223c-.537 3.175-2.785 5.518-4.384 6.48 1.599.781 4.16 2.824 5.134 6.52h-3.548c-.762-2.473-2.66-4.385-5.172-4.646V23h-.387Z" fill="currentColor"/></symbol><symbol id="ok" viewBox="0 0 32 32"><path fill-rule="evenodd" clip-rule="evenodd" d="M17.76 12.13c0-.944-.794-1.71-1.77-1.71-.977 0-1.772.766-1.772 1.71 0 .941.795 1.708 1.771 1.708.977 0 1.771-.767 1.771-1.709Zm2.506 0c0 2.275-1.917 4.127-4.277 4.127-2.359 0-4.277-1.852-4.277-4.128C11.712 9.852 13.63 8 15.989 8c2.36 0 4.277 1.852 4.277 4.13Zm-.052 6.504a8.176 8.176 0 0 1-2.483.993l2.39 2.308a1.18 1.18 0 0 1 0 1.71 1.284 1.284 0 0 1-1.77 0L16 21.377l-2.35 2.268a1.275 1.275 0 0 1-.886.355c-.32 0-.64-.119-.886-.355a1.18 1.18 0 0 1 0-1.71l2.391-2.308a8.188 8.188 0 0 1-2.484-.993 1.185 1.185 0 0 1-.392-1.668 1.278 1.278 0 0 1 1.727-.38 5.596 5.596 0 0 0 5.76 0 1.279 1.279 0 0 1 1.727.38 1.185 1.185 0 0 1-.393 1.668Z" fill="currentColor"/></symbol><symbol id="dzen" viewBox="0 0 32 32"><path fill-rule="evenodd" clip-rule="evenodd" d="M15.7 6c-.05 4.054-.327 6.332-1.847 7.853-1.52 1.52-3.8 1.797-7.853 1.847v.6c4.054.05 6.332.327 7.853 1.847 1.52 1.52 1.797 3.8 1.847 7.853h.6c.05-4.054.327-6.332 1.847-7.853 1.52-1.52 3.8-1.797 7.853-1.847v-.6c-4.054-.05-6.332-.327-7.853-1.847-1.52-1.52-1.797-3.8-1.847-7.853h-.6Z" fill="currentColor"/></symbol><symbol id="rutube" viewBox="0 0 32 32"><path d="m19.667 24.965-3.507-5.208h-3.543v5.208H8V7h8.088c4.617 0 7.695 2.447 7.695 6.326 0 2.342-1.18 4.264-3.15 5.383L25 25h-5.333v-.035Zm-7.014-9.227h3.4c1.79 0 3.15-.944 3.15-2.447 0-1.468-1.397-2.376-3.15-2.376h-3.4v4.823Z" fill="currentColor"/></symbol><symbol id="yappy" viewBox="0 0 32 32"><path d="M12.719 13.161c.776 2.408-.32 4.918-2.449 5.607-2.129.69-4.484-.703-5.26-3.11a5.62 5.62 0 0 1-.07-.234l-1.276.385c.024.086.05.173.077.259 1.032 3.2 4.162 5.05 6.992 4.135 2.83-.916 4.286-4.253 3.254-7.453l-.017-.049-1.277.385.026.075Z" fill="currentColor"/><path d="M8.672 18.416a.995.995 0 0 1-.904 1.078.995.995 0 0 1-1.075-.907.994.994 0 1 1 1.98-.17Z" fill="currentColor"/><path fill-rule="evenodd" clip-rule="evenodd" d="M14.355 12.584a.402.402 0 0 1-.267.502L3.461 16.337a.402.402 0 0 1-.235-.77l10.627-3.25a.402.402 0 0 1 .502.267Z" fill="currentColor"/><path d="M25.613 9.274c.776 2.407-.32 4.918-2.45 5.607-2.128.69-4.483-.704-5.26-3.111a5.67 5.67 0 0 1-.069-.234l-1.276.385c.024.087.049.174.077.26 1.032 3.2 4.162 5.05 6.991 4.135 2.83-.916 4.287-4.253 3.255-7.453l-.017-.049-1.277.385.026.075Z" fill="currentColor"/><path d="M21.566 14.53a.995.995 0 0 1-.904 1.078.996.996 0 0 1-.172-1.986.995.995 0 0 1 1.076.907Z" fill="currentColor"/><path fill-rule="evenodd" clip-rule="evenodd" d="M27.25 8.698a.402.402 0 0 1-.27.501l-10.673 3.225a.402.402 0 0 1-.233-.77l10.674-3.225a.402.402 0 0 1 .501.269ZM19.717 18.863c.22.032.373.236.341.456-.108.75-.39 1.304-.774 1.698a2.668 2.668 0 0 1-1.269.712c-.425.108-.83.12-1.125.105a4.011 4.011 0 0 1-.494-.055l-.009-.002h-.004l.082-.395-.083.394a.402.402 0 0 1 .165-.787h.003l.017.003.075.012c.067.01.166.02.287.026.243.012.563.002.887-.081.323-.083.638-.233.891-.493.251-.258.467-.647.555-1.252a.402.402 0 0 1 .455-.34Z" fill="currentColor"/></symbol><symbol id="tg" viewBox="0 0 32 32"><path fill-rule="evenodd" clip-rule="evenodd" d="M6.444 15.318c5.637-2.399 9.396-3.98 11.277-4.745 5.37-2.181 6.485-2.56 7.213-2.573.16-.003.517.036.75.22.195.155.249.364.274.511.026.147.058.482.033.744-.291 2.987-1.55 10.235-2.191 13.58-.271 1.416-.805 1.89-1.322 1.937-1.123.1-1.975-.725-3.063-1.422-1.702-1.09-2.663-1.768-4.315-2.831-1.91-1.23-.672-1.905.416-3.009.285-.288 5.233-4.684 5.328-5.083.012-.05.023-.236-.09-.334-.113-.098-.28-.065-.4-.038-.17.038-2.89 1.793-8.156 5.266-.772.518-1.471.77-2.097.757-.69-.015-2.019-.382-3.006-.695-1.211-.385-2.174-.588-2.09-1.241.044-.34.523-.688 1.439-1.044Z" fill="currentColor"/></symbol><symbol id="yt" viewBox="0 0 32 32"><path d="M25.551 10.96c-.191-1.056-1.102-1.824-2.16-2.064-1.582-.336-4.511-.576-7.68-.576-3.167 0-6.142.24-7.727.576-1.055.24-1.968.96-2.16 2.064-.193 1.2-.384 2.88-.384 5.04s.191 3.84.431 5.04c.193 1.056 1.105 1.824 2.16 2.064 1.68.336 4.56.576 7.729.576 3.169 0 6.049-.24 7.729-.576 1.055-.24 1.967-.96 2.16-2.064.191-1.2.431-2.929.48-5.04-.098-2.16-.338-3.84-.578-5.04Zm-12.431 8.4v-6.72L18.976 16l-5.856 3.36Z" fill="currentColor"/></symbol><symbol id="apple" viewBox="0 0 14 17"><path d="M12.93 5.808c-.073.046-1.807 1.008-1.807 3.142.082 2.433 2.188 3.286 2.225 3.286-.037.046-.319 1.163-1.153 2.333-.663 1.009-1.399 2.026-2.515 2.026-1.063 0-1.444-.672-2.67-.672-1.316 0-1.689.672-2.697.672-1.116 0-1.906-1.072-2.605-2.07C.8 13.216.028 11.164 0 9.194c-.018-1.044.182-2.07.69-2.942.717-1.217 1.997-2.043 3.396-2.07 1.07-.036 2.024.735 2.678.735.626 0 1.798-.735 3.123-.735.572 0 2.098.173 3.042 1.625ZM6.674 3.974c-.19-.953.336-1.907.826-2.515C8.127.724 9.116.225 9.97.225a3.555 3.555 0 0 1-.908 2.569c-.554.736-1.507 1.29-2.388 1.18Z" fill="currentColor"/></symbol><symbol id="ya-music" viewBox="0 0 17 21"><path d="M8.533 20.03c4.235 0 7.668-3.428 7.668-7.658s-3.433-7.66-7.668-7.66-7.668 3.43-7.668 7.66 3.433 7.659 7.668 7.659Z" fill="currentColor" fill-opacity=".45"/><path fill-rule="evenodd" clip-rule="evenodd" d="M12.374 4.566v7.165l-.017.005v.01c0 .7-.05 1.354-.146 1.688a3.825 3.825 0 0 1-3.687 2.768 3.808 3.808 0 0 1-3.812-3.824 3.808 3.808 0 0 1 3.812-3.824 3.824 3.824 0 0 1 3.18 1.69 3.876 3.876 0 0 1-.094-.75V.882l4.99 1.527v3.459l-4.226-1.3Z" fill="currentColor"/></symbol><symbol id="tw" viewBox="0 0 32 32"><path fill-rule="evenodd" clip-rule="evenodd" d="m15.74 12.99.039.649-.65-.08c-2.367-.304-4.435-1.337-6.191-3.071l-.859-.86-.22.635c-.469 1.416-.17 2.913.806 3.919.52.556.403.635-.494.304-.313-.106-.586-.185-.612-.145-.09.093.221 1.297.468 1.774.339.662 1.028 1.31 1.782 1.695l.638.304-.755.014c-.728 0-.754.013-.676.29.26.861 1.287 1.775 2.432 2.172l.806.278-.702.424a7.275 7.275 0 0 1-3.486.98c-.585.013-1.066.066-1.066.106 0 .132 1.587.874 2.51 1.165 2.77.86 6.06.49 8.532-.98 1.756-1.046 3.512-3.125 4.331-5.137.442-1.073.884-3.032.884-3.972 0-.61.04-.689.768-1.417.429-.424.832-.887.91-1.02.13-.251.117-.251-.546-.026-1.105.397-1.262.344-.715-.252.403-.423.884-1.191.884-1.416 0-.04-.195.026-.416.145-.234.133-.754.331-1.145.45l-.702.226-.637-.437c-.351-.239-.846-.504-1.106-.583-.663-.185-1.677-.159-2.276.053-1.626.596-2.653 2.132-2.536 3.813Z" fill="currentColor"/></symbol><symbol id="sberzvuk" viewBox="0 0 500 500"><path d="M141.7 430.9c10.9 22.3 16 45.8 16 69h62.5c0-32.4-7.2-65.3-22.3-96.4C159.8 325.3 81.5 279.9.1 279.8v62.5c58.3.1 114.3 32.6 141.6 88.6zM348.8 329.8c26.7 54.8 39.4 112.9 39.4 170h62.5c0-66.4-14.7-133.8-45.7-197.4C327 142.4 166.8 49.4.1 49.3v62.5c143.6.2 281.5 80.3 348.7 218zM38.2 481.4c2.9 6 4.3 12.3 4.3 18.5H105c0-15.4-3.4-31.1-10.6-45.9C76.2 416.7 39 395.1.1 395v62.5c15.7.1 30.7 8.8 38.1 23.9z" fill="currentColor"/><path d="M245.2 380.4c18.8 38.5 27.7 79.3 27.7 119.5h62.5c0-49.4-10.9-99.5-34-146.9C243.4 233.9 124.1 164.7.1 164.6v62.5c100.9.1 197.9 56.4 245.1 153.3z" fill="currentColor"/></symbol><symbol id="whatsapp" viewBox="0 0 32 32"><path d="m5.004 27 1.488-5.465A10.95 10.95 0 0 1 5 16C5 9.925 9.925 5 16 5s11 4.925 11 11-4.925 11-11 11a10.95 10.95 0 0 1-5.533-1.49L5.004 27Zm7.026-16.161c-.142.009-.28.046-.408.11-.12.067-.228.152-.323.25-.132.125-.207.233-.287.337a3.002 3.002 0 0 0-.622 1.846c.002.539.143 1.064.363 1.554.45.992 1.19 2.043 2.168 3.017.236.234.465.47.713.688a10.393 10.393 0 0 0 4.224 2.25l.626.096c.203.011.407-.004.611-.014.32-.016.634-.103.917-.254.144-.074.284-.155.421-.242 0 0 .047-.03.137-.099.149-.11.24-.188.363-.317.092-.094.171-.206.232-.332.085-.18.171-.521.206-.806.027-.218.019-.337.016-.41-.005-.118-.103-.24-.21-.292l-.64-.287s-.956-.417-1.54-.683a.547.547 0 0 0-.195-.045.53.53 0 0 0-.416.14v-.003c-.006 0-.08.063-.875 1.026a.385.385 0 0 1-.404.143 1.557 1.557 0 0 1-.21-.072c-.137-.057-.184-.08-.278-.12l-.005-.002a6.614 6.614 0 0 1-1.727-1.1c-.139-.121-.268-.253-.4-.38a6.924 6.924 0 0 1-1.121-1.396l-.065-.104a1.016 1.016 0 0 1-.113-.226c-.041-.161.067-.291.067-.291s.268-.293.392-.451c.104-.132.2-.269.29-.41.13-.21.17-.424.102-.59a91.584 91.584 0 0 0-.955-2.245c-.065-.148-.258-.253-.432-.274l-.179-.018a3.726 3.726 0 0 0-.443.005Z" fill="currentColor"/></symbol></svg>