<?xml version="1.0" encoding="UTF-8"?>
<!DOCTYPE svg PUBLIC "-//W3C//DTD SVG 1.1//EN" "http://www.w3.org/Graphics/SVG/1.1/DTD/svg11.dtd"><svg xmlns="http://www.w3.org/2000/svg" xmlns:xlink="http://www.w3.org/1999/xlink"><symbol id="map-point" viewBox="0 0 18 20"><path d="M9 .833A6.424 6.424 0 0 0 2.583 7.25c0 1.523.547 3.002 1.541 4.165.112.13 2.752 3.201 3.639 4.047a1.79 1.79 0 0 0 2.475 0c1.03-.982 3.534-3.924 3.639-4.048a6.417 6.417 0 0 0 1.54-4.164A6.424 6.424 0 0 0 9 .833Zm0 4.125a2.292 2.292 0 1 1 0 4.584 2.292 2.292 0 0 1 0-4.584Zm-5.146 7.536C1.77 13.096.292 14.104.292 15.5c0 2.407 4.38 3.667 8.708 3.667s8.708-1.26 8.708-3.667c0-1.396-1.477-2.403-3.56-3.005-.265.3-.627.71-1.027 1.155 2.03.478 3.212 1.25 3.212 1.85 0 .934-2.856 2.292-7.333 2.292-4.476 0-7.333-1.358-7.333-2.292 0-.6 1.185-1.374 3.217-1.851-.397-.443-.763-.853-1.03-1.155Z" fill="#DB1F2A"/></symbol><symbol id="sun" viewBox="0 0 20 20"><path d="M9.988.1a.742.742 0 0 0-.73.752v1.483a.742.742 0 1 0 1.483 0V.852A.743.743 0 0 0 9.988.1ZM3.523 2.783a.742.742 0 0 0-.517 1.273l1.05 1.05a.742.742 0 0 0 1.05-1.05l-1.05-1.05a.742.742 0 0 0-.533-.223Zm12.93 0a.742.742 0 0 0-.51.224l-1.049 1.048a.742.742 0 0 0 1.05 1.05l1.049-1.049a.742.742 0 0 0-.54-1.273ZM10 4.56a5.44 5.44 0 1 0 0 10.878 5.44 5.44 0 0 0 0-10.878ZM.852 9.258a.742.742 0 1 0 0 1.483h1.483a.743.743 0 1 0 0-1.483H.852Zm16.812 0a.742.742 0 1 0 0 1.483h1.483a.743.743 0 1 0 0-1.483h-1.483ZM4.565 14.67a.742.742 0 0 0-.51.224l-1.048 1.049a.742.742 0 1 0 1.05 1.05l1.048-1.05a.742.742 0 0 0-.54-1.273Zm10.846 0a.741.741 0 0 0-.517 1.274l1.049 1.049a.744.744 0 0 0 1.21-.81.742.742 0 0 0-.16-.24l-1.05-1.049a.742.742 0 0 0-.532-.224Zm-5.423 2.242a.742.742 0 0 0-.73.752v1.483a.742.742 0 1 0 1.483 0v-1.483a.744.744 0 0 0-.753-.752Z" fill="currentColor"/></symbol><symbol id="moon" viewBox="0 0 25 25"><path d="M24.392 14.246c-.256-.064-.512 0-.736.16a9.37 9.37 0 01-2.845 1.67c-.99.385-2.078.578-3.229.578a9.38 9.38 0 01-6.649-2.761 9.46 9.46 0 01-2.75-6.677c0-1.092.193-2.151.512-3.114A8.63 8.63 0 0110.23 1.34a.822.822 0 00-.128-1.156c-.224-.16-.48-.225-.735-.16C6.649.763 4.284 2.4 2.589 4.583A12.698 12.698 0 000 12.288c0 3.499 1.407 6.677 3.708 8.988C6.01 23.588 9.143 25 12.66 25c2.941 0 5.659-1.027 7.833-2.729a12.663 12.663 0 004.475-7.03c.128-.45-.128-.899-.575-.995z" fill="currentColor"/></symbol><symbol id="play" viewBox="0 0 25 29"><path d="M23.103 12.635c1.305.775 1.305 2.664 0 3.439L3.16 27.915c-1.333.792-3.02-.17-3.02-1.72V2.513C.14.963 1.827.003 3.16.793l19.943 11.842Z" fill="currentColor"/></symbol><symbol id="pause" viewBox="0 0 10 14"><rect x=".625" y=".75" width="3.125" height="12.5" rx="1.563" fill="currentColor"/><rect x="6.25" y=".75" width="3.125" height="12.5" rx="1.563" fill="currentColor"/></symbol><symbol id="search" viewBox="0 0 17 17"><path d="M10.333 0C14.007 0 17 2.993 17 6.667s-2.993 6.666-6.667 6.666a6.631 6.631 0 0 1-4.215-1.509l-3.98 3.98a.665.665 0 0 1-1.098-.21.667.667 0 0 1 .155-.732l3.98-3.98a6.631 6.631 0 0 1-1.508-4.215C3.667 2.993 6.659 0 10.333 0Zm0 1.333A5.323 5.323 0 0 0 5 6.667 5.323 5.323 0 0 0 10.333 12a5.323 5.323 0 0 0 5.334-5.333 5.323 5.323 0 0 0-5.334-5.334Z" fill="currentColor"/></symbol><symbol id="arrow" viewBox="0 0 8 15"><path d="m.195 2.136 5.862 5.862L.195 13.86a.666.666 0 1 0 .943.943L7.471 8.47a.664.664 0 0 0 0-.943L1.138 1.194a.667.667 0 1 0-.943.942Z" fill="currentColor"/></symbol><symbol id="calendar" viewBox="0 0 15 15"><g fill="currentColor"><path d="M11.333 0H2.667A2.675 2.675 0 0 0 0 2.667v8.666C0 12.8 1.2 14 2.667 14H6.6c-.267-.4-.5-.867-.667-1.333H2.667c-.734 0-1.334-.6-1.334-1.334V5h11.334v.933c.466.167.933.4 1.333.667V2.667C14 1.2 12.8 0 11.333 0Zm1.334 3.667H1.333v-1c0-.734.6-1.334 1.334-1.334h8.666c.734 0 1.334.6 1.334 1.334v1Z"/><path d="M4 6H3c-.366 0-.667.3-.667.667v1c0 .366.3.666.667.666h1c.367 0 .667-.3.667-.666v-1C4.667 6.3 4.367 6 4 6ZM9.133 6a5.429 5.429 0 0 0-2.766 2.333h-.034a.669.669 0 0 1-.667-.666v-1c0-.367.3-.667.667-.667h2.8ZM4 9H3c-.366 0-.667.3-.667.667v1c0 .366.3.666.667.666h1c.367 0 .667-.3.667-.666v-1C4.667 9.3 4.367 9 4 9ZM11 8.333c1.467 0 2.667 1.2 2.667 2.667 0 1.467-1.2 2.667-2.667 2.667A2.675 2.675 0 0 1 8.333 11c0-1.467 1.2-2.667 2.667-2.667ZM11 7c-2.2 0-4 1.8-4 4s1.8 4 4 4 4-1.8 4-4-1.8-4-4-4Z"/><path d="M12.332 12.001a.66.66 0 0 1-.928.13l-.89-.677a.498.498 0 0 1-.188-.492l.212-1.096a.674.674 0 1 1 1.322.267l-.127.6.461.338a.661.661 0 0 1 .138.93Z"/></g></symbol><symbol id="phone" viewBox="0 0 15 20"><path d="M4.727.839a2.564 2.564 0 0 0-.914.098l-1.085.322A3.455 3.455 0 0 0 .363 3.676C-.316 6.25.46 9.298 2.48 12.729c2.017 3.425 4.316 5.603 6.912 6.313 1.17.32 2.43.015 3.316-.808l.826-.765a2.5 2.5 0 0 0 .315-3.3l-1.193-1.62a2.566 2.566 0 0 0-2.802-.927l-1.865.559c-.078.023-.266-.084-.429-.225-.291-.253-.694-.764-1.124-1.494-.462-.785-.659-1.298-.738-1.6-.079-.304-.06-.34-.048-.443a.217.217 0 0 1 .071-.136h.001L7.114 7.01a2.492 2.492 0 0 0 .588-2.872l-.838-1.83v-.001A2.55 2.55 0 0 0 4.727.839Zm-.1 1.371c.421.032.809.284.986.67l.84 1.83c.203.443.101.95-.266 1.286L4.796 7.267c-.285.26-.468.615-.511.997v.001c-.012.1-.039.475.084.944.122.468.375 1.088.882 1.95h.001c.474.804.922 1.414 1.407 1.835.158.137.818.77 1.716.507h.002l1.874-.562a1.188 1.188 0 0 1 1.299.425l1.192 1.62c.338.46.279 1.085-.143 1.477l-.825.766a2.166 2.166 0 0 1-2.018.489c-2.099-.575-4.176-2.434-6.09-5.685C1.75 8.777 1.15 6.085 1.692 4.027c.18-.68.729-1.243 1.426-1.45l1.084-.321c.142-.042.285-.056.426-.046Z" fill="currentColor"/></symbol><symbol id="mail" viewBox="0 0 18 14"><path d="M2.955.4A2.765 2.765 0 0 0 .2 3.155v8.053a2.765 2.765 0 0 0 2.755 2.755h11.443a2.765 2.765 0 0 0 2.755-2.755V3.155A2.765 2.765 0 0 0 14.398.4H2.955Zm0 1.272h11.443c.827 0 1.484.657 1.484 1.483v.469L8.677 7.519 1.47 3.624v-.469c0-.826.657-1.483 1.484-1.483ZM1.47 5.069l6.903 3.732a.636.636 0 0 0 .605 0l6.903-3.732v6.14c0 .826-.657 1.483-1.484 1.483H2.955a1.474 1.474 0 0 1-1.484-1.484V5.07Z" fill="currentColor"/></symbol><symbol id="msg" viewBox="0 0 18 18"><path fill-rule="evenodd" clip-rule="evenodd" d="M0 5a5 5 0 0 1 5-5h8a5 5 0 0 1 5 5v5a5 5 0 0 1-5 5h-2.5l-6 3v-3A4.5 4.5 0 0 1 0 10.5V5Zm3 1.75A.75.75 0 0 1 3.75 6h1.5a.75.75 0 0 1 0 1.5h-1.5A.75.75 0 0 1 3 6.75ZM8.75 6a.75.75 0 0 0 0 1.5h5.5a.75.75 0 0 0 0-1.5h-5.5ZM3 10.75a.75.75 0 0 1 .75-.75h3.5a.75.75 0 0 1 0 1.5h-3.5a.75.75 0 0 1-.75-.75Zm7.75-.75a.75.75 0 0 0 0 1.5h3.5a.75.75 0 0 0 0-1.5h-3.5Z" fill="currentColor"/></symbol><symbol id="video" viewBox="0 0 19 13"><path fill-rule="evenodd" clip-rule="evenodd" d="M.884 2.113c0-.928.728-1.683 1.623-1.683H13.05c.895 0 1.623.755 1.623 1.683v2.458l4.055-3.367v10.234l-4.055-3.366v2.457c0 .928-.728 1.683-1.623 1.683H2.507c-.895 0-1.623-.755-1.623-1.683V2.113Zm9.22 4.626c.792 0 1.434-.66 1.434-1.473 0-.813-.642-1.473-1.434-1.473-.792 0-1.434.66-1.434 1.473 0 .814.642 1.473 1.434 1.473Z" fill="currentColor"/></symbol><symbol id="shrink" viewBox="0 0 16 16"><path d="M15.252 0a.727.727 0 0 0-.5.22l-4.571 4.572V1.46a.728.728 0 1 0-1.453 0v4.975a.726.726 0 0 0 .837.837h4.975a.726.726 0 1 0 0-1.453h-3.332l4.572-4.571A.728.728 0 0 0 15.252 0ZM6.534 8.718a.728.728 0 0 0-.08.007h-4.99a.727.727 0 1 0 0 1.453h3.331L.223 14.749a.726.726 0 1 0 1.028 1.028l4.571-4.572v3.332a.726.726 0 1 0 1.453 0V9.544a.727.727 0 0 0-.74-.826Z" fill="currentColor"/></symbol><symbol id="expand" viewBox="0 0 14 14"><path d="M13.346 0a.637.637 0 0 0-.07.006H8.907a.636.636 0 1 0 0 1.272h2.916L1.28 11.82V8.906a.636.636 0 1 0-1.271 0v4.353a.636.636 0 0 0 .732.733h4.353a.636.636 0 1 0 0-1.272H2.18L12.723 2.177v2.915a.636.636 0 1 0 1.271 0V.722A.636.636 0 0 0 13.346 0Z" fill="currentColor"/></symbol><symbol id="sound-full" viewBox="0 0 16 14"><path d="M7.97 11.988a.726.726 0 0 1-.723.726.721.721 0 0 1-.462-.167L2.83 9.255H.723A.725.725 0 0 1 0 8.53V5.634c0-.401.324-.727.723-.727H2.83l3.955-3.291a.72.72 0 0 1 .77-.098c.253.12.416.376.416.657v9.813Zm2.78-1.136a.72.72 0 0 1-.563-.21l-.096-.098a.728.728 0 0 1-.07-.947 4.205 4.205 0 0 0 .827-2.515A4.19 4.19 0 0 0 9.91 4.42a.728.728 0 0 1 .05-.972l.097-.097a.724.724 0 0 1 1.072.054 5.762 5.762 0 0 1 1.302 3.677 5.787 5.787 0 0 1-1.152 3.48.723.723 0 0 1-.527.29Zm2.992 2.246a.723.723 0 0 1-.523.257h-.03a.72.72 0 0 1-.512-.212l-.095-.096a.729.729 0 0 1-.042-.981 7.777 7.777 0 0 0 1.81-4.984 7.754 7.754 0 0 0-1.938-5.133.729.729 0 0 1 .03-.995l.094-.095a.722.722 0 0 1 1.053.03 9.36 9.36 0 0 1 .152 12.209Z" fill="currentColor"/></symbol><symbol id="sound-half" viewBox="0 0 13 12"><path d="M7.97 10.988a.726.726 0 0 1-.723.726.721.721 0 0 1-.462-.167L2.83 8.255H.723A.725.725 0 0 1 0 7.53V4.634c0-.401.324-.727.723-.727H2.83L6.785.616a.72.72 0 0 1 .77-.098c.253.12.416.376.416.657v9.813Zm2.78-1.136a.72.72 0 0 1-.563-.21l-.096-.098a.728.728 0 0 1-.07-.947 4.205 4.205 0 0 0 .827-2.515A4.19 4.19 0 0 0 9.91 3.42a.728.728 0 0 1 .05-.972l.097-.097a.723.723 0 0 1 1.072.054 5.762 5.762 0 0 1 1.302 3.677 5.787 5.787 0 0 1-1.152 3.48.723.723 0 0 1-.527.29Z" fill="currentColor"/></symbol><symbol id="sound-muted" viewBox="0 0 15 12"><path d="M7.97 10.988a.726.726 0 0 1-.723.726.721.721 0 0 1-.462-.167L2.83 8.255H.723A.725.725 0 0 1 0 7.53V4.634c0-.401.324-.727.723-.727H2.83L6.785.616a.72.72 0 0 1 .77-.098c.253.12.416.376.416.657v9.813Z" fill="currentColor"/><path fill-rule="evenodd" clip-rule="evenodd" d="M9.628 3.879a.75.75 0 0 0 0 1.06L10.69 6 9.63 7.06a.75.75 0 1 0 1.06 1.061l1.06-1.06 1.061 1.06a.75.75 0 0 0 1.061-1.06L12.811 6l1.06-1.06a.75.75 0 0 0-1.06-1.061l-1.061 1.06-1.061-1.06a.75.75 0 0 0-1.06 0Z" fill="currentColor"/></symbol><symbol id="success" viewBox="0 0 32 32"><path d="M16 0C7.164 0 0 7.164 0 16s7.164 16 16 16 16-7.164 16-16S24.836 0 16 0Zm8.943 12.943-10.08 10.08a1.333 1.333 0 0 1-1.886 0l-4.604-4.604a1.332 1.332 0 0 1 0-1.886 1.332 1.332 0 0 1 1.886 0l3.661 3.662 9.137-9.138a1.332 1.332 0 1 1 1.886 1.886Z" fill="currentColor"/></symbol><symbol id="error" viewBox="0 0 19 33"><path d="M.919 23.485C.306 22.842 0 22.068 0 21.163c0-.904.306-1.666.919-2.285.636-.643 1.402-.965 2.297-.965.895 0 1.65.322 2.262.965.636.619.954 1.38.954 2.285 0 .905-.318 1.679-.954 2.322-.613.619-1.367.928-2.262.928s-1.661-.31-2.297-.928Zm0-10.5C.306 12.342 0 11.568 0 10.663s.306-1.666.919-2.285c.636-.643 1.402-.965 2.297-.965.895 0 1.65.322 2.262.965.636.619.954 1.38.954 2.285 0 .905-.318 1.679-.954 2.322-.613.619-1.367.928-2.262.928s-1.661-.31-2.297-.928ZM15.572 0 19 1.929a30.535 30.535 0 0 0-2.262 6.25c-.636 2.595-.954 5.38-.954 8.357 0 2.928.318 5.69.954 8.285A30.534 30.534 0 0 0 19 31.071L15.572 33a32.98 32.98 0 0 1-2.792-6.857c-.825-2.857-1.237-6.06-1.237-9.607 0-3.477.412-6.703 1.237-9.679A32.98 32.98 0 0 1 15.572 0Z" fill="currentColor"/></symbol><symbol id="like" viewBox="0 0 19 18"><path d="M17.051 11.133a13.77 13.77 0 0 1-1.69-.518c-2.618-.983-3.475-1.517-5.229-3.613-1.455-1.734-1.73-3.807-2.384-5.517-.219-.573-.954-.851-1.488-.457-.857.635.113 4.774.113 4.774.097.333-.016.565-.283.697 0 0-4.663 2.143-5.213 3.064-.364.611-.194 1.207.08 1.663.106.17.324.232.502.147l2.853-1.3c.21-.1.469 0 .558.217.073.194-.032.402-.226.488L1.66 12.131a.39.39 0 0 0-.226.317c-.017.402.088.812.396 1.168a.413.413 0 0 0 .444.108l2.288-.874c.194-.077.428-.008.525.178a.375.375 0 0 1-.21.534l-2.061.781a.37.37 0 0 0-.243.372c.025.333.138.68.404.983a.393.393 0 0 0 .413.108l1.527-.488c.227-.07.47.055.526.279.048.193-.081.395-.283.457l-.598.193a.37.37 0 0 0-.121.65c.662.503 1.584.658 2.19.603.89-.077 1.374-.209 2.99-.541 2.806-.58 4.212-.727 6.84-.472.84.077 1.575-.534 1.608-1.346.032-.82.072-1.819.097-2.593.024-.673-.445-1.26-1.116-1.416Z" fill="currentColor"/></symbol><symbol id="download" viewBox="0 0 14 14"><path d="M.709 12.438a.83.83 0 0 0-.27.041.726.726 0 0 0-.23.125.584.584 0 0 0-.155.188.49.49 0 0 0 0 .444c.036.07.088.135.154.188a.728.728 0 0 0 .23.125.833.833 0 0 0 .271.041h12.582a.834.834 0 0 0 .27-.041.728.728 0 0 0 .23-.124.585.585 0 0 0 .155-.189.49.49 0 0 0 0-.445.583.583 0 0 0-.154-.188.726.726 0 0 0-.23-.124.83.83 0 0 0-.271-.041H.709ZM7.127 0a.576.576 0 0 0-.575.576v7.527L4.327 5.878a.575.575 0 0 0-.815 0l-.05.05a.575.575 0 0 0 0 .814L6.72 10c.225.225.59.225.815 0l3.257-3.258a.575.575 0 0 0 0-.814l-.05-.05a.575.575 0 0 0-.814 0L7.703 8.103V.576A.576.576 0 0 0 7.127 0Z" fill="currentColor"/></symbol></svg>